<?xml version="1.0" encoding="UTF-8"?>
<svg xmlns="http://www.w3.org/2000/svg" viewBox="-50 -40 734 1538" width="100%" height="100%">
  <g id="abs" class="muscle-base">
    <path d="m 261.73,482.62 c 0.12,-10.88 -0.33,-22.8 7.93,-31.04 10.43,-10.39 25.75,-12.91 39.95,-10.63 q 0.47,0.08 0.45,0.54 l -0.87,24.33 a 0.96,0.95 88.3 0 1 -0.86,0.92 q -8.51,0.88 -17.53,2.35 c -11.22,1.83 -20.06,5.16 -28.09,13.92 q -1,1.08 -0.98,-0.39 z"/>
    <path d="m 263.89,560.38 c 18.37,-2.6 32.63,0.35 44.32,15.16 q 0.72,0.91 0.91,2.02 0.98,5.72 1.19,10.92 2.01,48.7 2.07,81.21 0.01,2.91 -2.63,5.03 c -2.77,2.21 -10.61,5.88 -13.52,2.38 -6.1,-7.32 -10.49,-16.08 -14.05,-25.36 q -14.5,-37.75 -18.65,-78.2 -0.6,-5.83 -0.33,-12.39 0.03,-0.68 0.69,-0.77 z"/>
    <path d="m 283.92,476.78 q 12.55,-5.43 25.84,-3.32 0.36,0.06 0.36,0.42 0.41,19.6 -0.86,38.86 a 0.91,0.91 0 0 1 -1,0.85 c -13.44,-1.32 -28.43,-1.82 -41.54,1.88 q -1.32,0.37 -1.93,-0.86 c -9,-18.41 3.35,-31 19.13,-37.83 z"/>
    <path d="m 300.31,556.68 q -4.15,-2.21 -8.98,-2.91 -13.66,-2 -27.37,-1.31 a 0.95,0.95 0 0 1 -0.97,-0.72 q -2.73,-10.93 -1.37,-23.2 0.2,-1.78 1.77,-2.92 c 6.36,-4.65 14.69,-8.3 22.33,-8.94 q 12.38,-1.05 23.44,4.26 a 2.06,2.06 0 0 1 1.17,1.89 q -0.3,18.75 -1.38,35.86 -0.03,0.52 -0.55,0.61 c -2.7,0.45 -5.69,-1.34 -8.09,-2.62 z"/>
    <path d="m 349.65,553.77 c -5.34,0.78 -9.22,3.16 -13.94,5.24 q -1.59,0.69 -3.28,0.24 a 0.64,0.63 -83.8 0 1 -0.47,-0.59 q -1.23,-19.64 -1.28,-36.09 a 1.7,1.68 -13.4 0 1 0.95,-1.53 c 15.64,-7.64 31.83,-5.42 45.86,4.48 0.94,0.67 1.65,1.44 1.78,2.61 q 1.39,12.16 -1.2,23.23 -0.25,1.07 -1.34,1.03 -13.86,-0.54 -27.08,1.38 z"/>
    <path d="m 354.08,475.63 c 16.7,6.15 32.39,19.94 21.71,39.55 a 0.9,0.9 0 0 1 -1.05,0.43 c -13.38,-3.92 -27.7,-3.22 -41.96,-2.05 a 0.9,0.9 0 0 1 -0.97,-0.78 c -1.62,-12.74 -1.1,-26.27 -1.03,-38.85 a 0.48,0.47 86.4 0 1 0.4,-0.46 q 11.86,-1.91 22.9,2.16 z"/>
    <path d="m 362.23,642.32 c -4.21,12.26 -9.35,24.52 -17.49,34.79 q -0.9,1.12 -2.2,1.22 -6.54,0.54 -11.69,-3.91 c -1.34,-1.16 -2.37,-2.61 -2.35,-4.44 q 0.27,-32.33 1.7,-73.01 0.36,-10.37 1.51,-19.31 0.12,-0.89 0.67,-1.6 c 11.52,-15 26.64,-18.71 44.72,-15.65 a 0.85,0.84 -86 0 1 0.71,0.83 q 0.06,12.43 -1.93,25.22 -4.56,29.34 -13.65,55.86 z"/>
    <path d="m 378.34,483.09 c -8.04,-8.87 -17.3,-12.26 -29.19,-14.16 q -8.48,-1.35 -16.49,-2.17 a 1.05,1.04 2.2 0 1 -0.93,-1 l -0.83,-24.24 q -0.02,-0.53 0.51,-0.61 18.35,-2.62 31.52,4.43 14.18,7.59 15.53,22.29 0.76,8.32 0.7,15.15 -0.01,1.2 -0.82,0.31 z"/>
  </g>
</svg>