<?xml version="1.0" encoding="UTF-8"?>
<svg xmlns="http://www.w3.org/2000/svg" viewBox="-50 -40 734 1538" width="100%" height="100%">
  <g id="adductors" class="muscle-base">
    <path d="m 286.21,731.89 c 5.1,-12.47 11.15,-24.68 16.82,-36.79 a 1.17,1.17 0 0 1 1.84,-0.38 q 0.8,0.71 0.75,1.93 c -0.46,12.38 -1.19,24.44 -2.76,37.71 -1.13,9.56 -1.91,19.14 -3.49,28.56 -0.69,4.17 -2.41,8.04 -4.32,11.69 a 2.22,2.21 29.3 0 1 -3.12,0.87 q -1.32,-0.8 -1.28,-2.41 0.2,-8.82 0.13,-17.67 -0.01,-1.4 -0.62,-2.66 c -2.16,-4.44 -4.98,-9.87 -5.17,-14.91 q -0.11,-2.7 1.22,-5.94 z"/>
    <path d="m 292.87,682.52 c -3.12,14.57 -9.61,27.39 -18.76,39.63 q -0.68,0.91 -1.28,-0.05 c -2.93,-4.74 -4.21,-9.67 -4.63,-15.36 q -0.45,-5.9 -1.09,-8.14 -1.89,-6.56 -4.75,-13.01 c -2.76,-6.23 -4.28,-13.06 -7.14,-19.37 -7.35,-16.19 -16.26,-33.86 -22.42,-51.48 q -0.08,-0.21 -0.01,-0.42 a 0.26,0.26 0 0 1 0.46,-0.06 q 10.77,14.73 21.98,28.77 11.5,14.4 17.6,19.88 7.55,6.77 14.86,13.4 2.74,2.48 4.97,5.3 a 1.11,1.09 32.6 0 1 0.21,0.91 z"/>
    <path d="m 300.1,836.83 q 1.64,19.12 2.22,36.73 0.11,3.47 -0.89,0.14 -2.42,-8.03 -4.58,-16.34 c -4.22,-16.26 -9.63,-31.97 -14.75,-48.34 q -2.58,-8.25 -6.48,-18.58 -14.03,-37.14 -28.05,-75.59 -3.75,-10.3 -6.6,-19.52 -5.15,-16.64 -9.78,-32.48 c -4.96,-16.95 -8.01,-35.46 -8.1,-52.91 q -0.02,-2.71 0.71,-0.1 9.47,34.09 24.55,65.57 c 6.56,13.69 13.54,27.25 19.02,40.89 q 15.49,38.57 24.83,67.42 2.41,7.47 3.31,17.16 c 1.12,12.19 3.56,24.02 4.59,35.95 z"/>
    <path d="m 338.67,872.66 c 0.73,-20.39 1.92,-38.3 4.91,-57.16 1.83,-11.53 2.14,-23.33 6.03,-34.79 q 10.93,-32.22 23.86,-64.19 c 5.7,-14.09 12.7,-27.77 19.13,-41.2 q 15.32,-32.04 24.53,-65.61 0.65,-2.39 0.64,0.08 c -0.12,28.68 -7.98,55.21 -17.34,83.63 -1.78,5.41 -3.2,10.88 -5.19,16.32 -10.25,27.99 -20.2,55.76 -30.81,83.12 q -2.8,7.2 -4.91,13.95 -5.59,17.81 -11.19,35.6 c -3.34,10.63 -5.96,21.88 -9.13,32.74 q -0.27,0.92 -0.4,-0.03 -0.18,-1.22 -0.13,-2.46 z"/>
    <path d="m 394.37,647.3 c -4.46,9.4 -9.38,19.33 -12.44,29.17 q -1.3,4.17 -2.83,7.95 c -2.26,5.61 -4.97,10.94 -5.74,16.89 -0.99,7.53 -1.06,14.75 -5.53,21.2 a 0.5,0.5 0 0 1 -0.83,0.01 q -4.34,-6.22 -7.72,-11.72 -7.96,-12.97 -11.16,-28.21 a 1.61,1.61 0 0 1 0.35,-1.37 q 2.44,-2.82 5.14,-5.21 c 9.88,-8.72 18.7,-16.83 27.48,-27.39 q 13.43,-16.14 25.97,-33.56 0.32,-0.44 0.43,-0.49 0.87,-0.39 0.54,0.51 -5.81,15.68 -13.66,32.22 z"/>
    <path d="m 352.83,748.3 c -2.02,3.67 -2.95,6.58 -2.78,11.03 q 0.26,6.53 0.21,13.72 c -0.01,1.58 -1.13,2.86 -2.75,2.9 q -0.58,0.01 -0.9,-0.48 C 342.49,769 341.27,763.08 340.41,755 q -1.04,-9.79 -2.26,-19.97 c -1.6,-13.31 -2.43,-25.65 -2.79,-38.57 q -0.03,-1.03 0.53,-1.68 a 1.21,1.2 52.6 0 1 2.01,0.27 q 6.87,14.67 13.39,28.8 2.2,4.77 3.93,9.5 1.07,2.92 0.68,5.46 -0.83,5.42 -3.07,9.49 z"/>
  </g>
</svg>