<?xml version="1.0" encoding="UTF-8"?>
<svg xmlns="http://www.w3.org/2000/svg" viewBox="-50 -40 734 1538" width="100%" height="100%">
  <g id="ankles" class="muscle-base">
    <path d="m 279.42,1326.07 q -2.66,-6.02 -11.2,-17.08 -1.56,-2.02 -1.72,-4 c -0.22,-2.73 1.78,-5.75 4.12,-7.13 q 0.49,-0.29 0.97,0.02 8.39,5.34 14.89,11.86 1.95,1.97 2.11,4.51 0.86,13.41 -1.46,27.53 a 0.31,0.31 0 0 1 -0.45,0.22 q -0.14,-0.08 -0.27,-0.19 -0.12,-0.1 -0.18,-0.24 -3.39,-7.76 -6.81,-15.5 z"/>
    <path d="m 284.58,1349.02 q 5.05,11.98 7,21.38 3.39,16.32 -0.69,32.76 a 0.43,0.43 0 0 1 -0.76,0.16 c -10.12,-13.11 -21.17,-25.72 -34.11,-35.39 a 1.63,1.62 16.1 0 1 -0.65,-1.17 q -0.75,-8.89 2.46,-14.38 0.98,-1.67 1.18,-3.55 1.38,-12.95 2.87,-26.6 a 0.7,0.7 0 0 1 0.91,-0.59 c 11.21,3.6 17.28,16.67 21.79,27.38 z"/>
    <path d="m 353.36,1339.65 q -1.77,-13.46 -1.06,-24.75 0.06,-0.96 0.22,-1.92 c 0.7,-4.2 12.74,-12.42 16.33,-14.86 q 1.07,-0.72 2.08,0.08 c 3.24,2.56 4.92,6.49 2.19,10.15 -5.11,6.84 -9.99,13.59 -13.3,21.5 q -2.27,5.41 -5.06,11.31 -0.76,1.62 -1.15,-0.12 -0.15,-0.68 -0.25,-1.39 z"/>
    <path d="m 379.01,1322.5 c 1.17,9.01 1.97,18.19 3.1,26.72 0.13,0.98 0.26,1.92 0.78,2.79 q 3.21,5.33 2.84,13.44 -0.1,2.05 -1.78,3.29 c -12.07,8.93 -22.71,21.31 -32.45,33.67 q -0.48,0.61 -1.15,0.95 a 0.24,0.24 0 0 1 -0.34,-0.16 q -5.23,-21.38 1.99,-42.64 2.82,-8.31 6.7,-16.77 c 4.2,-9.17 9.45,-18.49 19,-22.07 a 0.98,0.97 -14.1 0 1 1.31,0.78 z"/>
  </g>
</svg>