<?xml version="1.0" encoding="UTF-8"?>
<svg xmlns="http://www.w3.org/2000/svg" viewBox="-50 -40 734 1538" width="100%" height="100%">
  <g id="biceps" class="muscle-base">
    <path d="m 155.35,437.19 c 0.88,-13.89 5.09,-26.01 11.66,-38.24 4.28,-7.95 13.01,-13.06 21.68,-14.64 q 5.04,-0.91 8.47,-1.31 c 3.81,-0.44 9.89,1.7 10.16,6.4 q 0.6,10.54 -0.27,19.31 c -1.87,18.75 -10.06,34.69 -22.69,48.75 q -8.64,9.63 -17.84,18.84 a 1.95,1.9 16.8 0 1 -0.98,0.51 q -3.19,0.6 -7.01,-0.16 c -1.52,-0.3 -2.45,-1.78 -2.7,-3.22 -0.63,-3.64 -1.32,-7.25 -1.31,-10.96 q 0.05,-12.9 0.83,-25.28 z"/>
    <path d="m 478.52,408.27 q 5.57,13 6.67,24.56 1.21,12.62 1.22,28.51 0,5.95 -1.27,12.12 c -0.81,3.98 -5.47,3.81 -8.54,3.62 q -1.7,-0.11 -3.27,-1.75 c -13.93,-14.57 -28.48,-28.44 -35.35,-48.06 -4.33,-12.36 -5.34,-25.85 -4.21,-39.01 q 0.06,-0.73 0.51,-1.3 c 2.72,-3.44 6.57,-4.44 11.44,-3.76 q 7.25,1.01 11.78,2.52 9.47,3.16 14.86,10.89 3.02,4.33 6.16,11.66 z"/>
  </g>
</svg>