<?xml version="1.0" encoding="UTF-8"?>
<svg xmlns="http://www.w3.org/2000/svg" viewBox="-50 -40 734 1538" width="100%" height="100%">
  <g id="calves" class="muscle-base">
    <path d="m 273.89,1099.95 c 3.37,-15.16 7.39,-30.47 12.61,-44.88 q 0.67,-1.85 1.28,0.01 4.41,13.38 7.29,29.13 3.29,18.03 6.8,44.66 2.68,20.36 2.76,35.74 0.04,6.36 -1.26,13.77 -3.67,20.9 -7.39,37.94 -6.52,29.95 -12.99,57.95 -0.31,1.31 -0.67,0.01 -3.32,-11.98 -5.27,-24.29 -5.82,-36.85 -4.93,-74.51 c 0.46,-19.33 0.09,-35.61 0.04,-57.98 q -0.03,-9.65 1.73,-17.55 z"/>
    <path d="m 272.32,1289.43 q 0.14,1.3 -0.7,0.3 -1.96,-2.32 -3.31,-4.94 -4.85,-9.47 -8.79,-20.24 -9.58,-26.21 -15.83,-53.09 -1,-4.3 -2.77,-8.19 c -8,-17.6 -12.77,-36.6 -13.83,-55.89 q -1.45,-26.23 4.89,-54.26 0.41,-1.85 1,-0.05 1.2,3.7 2.35,7.92 c 6.05,22.14 11.41,47.6 16.75,71.19 q 2.42,10.71 3.46,19.48 2.54,21.38 5.09,39.58 c 2.14,15.29 4.57,31.52 9.27,46.7 q 1.76,5.67 2.42,11.49 z"/>
    <path d="m 351.12,1061.47 q 0.86,-3.24 2.27,-6.95 a 0.37,0.37 0 0 1 0.67,-0.04 q 0.6,1.15 1.07,2.55 4.5,13.38 8.77,29.36 3.17,11.88 4.35,21.44 0.65,5.26 0.58,16.16 c -0.12,17.19 -0.49,33.53 -0.01,50.26 q 0.96,33.46 -3.97,69.04 -2.3,16.62 -6.18,31.23 -0.05,0.18 -0.19,0.29 a 0.25,0.25 0 0 1 -0.39,-0.14 c -7.63,-32.4 -14.66,-63.57 -20.38,-95.86 q -1.46,-8.28 -1.39,-15.2 0.13,-12.7 1.63,-25.36 c 2.86,-24.12 6.38,-51.37 13.17,-76.78 z"/>
    <path d="m 400.56,1202.06 c -1.03,2.29 -2.11,4.68 -2.7,7.11 -5.58,23.36 -12.43,46.15 -21.19,67.15 q -3.13,7.49 -7.08,13.12 -0.19,0.27 -0.47,0.44 -0.68,0.4 -0.57,-0.38 0.79,-5.61 2.43,-11.29 5.47,-18.91 8.27,-39.41 3.36,-24.7 6.32,-48.64 1.04,-8.33 3.58,-19.59 5.82,-25.8 11.4,-49.84 3.49,-14.99 7.21,-27.24 0.18,-0.58 0.63,-1.01 0.33,-0.31 0.43,0.13 c 8.56,36.96 7.32,74.95 -8.26,109.45 z"/>
  </g>
</svg>