<?xml version="1.0" encoding="UTF-8"?>
<svg xmlns="http://www.w3.org/2000/svg" viewBox="-50 -40 734 1538" width="100%" height="100%">
  <g id="chest" class="muscle-base">
    <path d="m 215.31,402.8 c 3.26,-19.61 9.28,-38.69 19.81,-54.85 q 13.83,-21.23 37.68,-27.16 c 4.19,-1.04 8.16,-1.75 12.65,-1.52 q 12.07,0.63 26.16,3.99 1.78,0.43 1.87,2.25 1.29,25.82 3.16,54.8 0.99,15.38 0.3,27.45 -0.37,6.41 -1.94,10.48 c -1.58,4.08 -6.16,7.97 -9.72,10.84 -4.33,3.5 -10.61,4.16 -16,3.9 q -10.92,-0.53 -23.26,-4.83 c -17.71,-6.16 -33.56,-14.26 -50.09,-24.02 a 1.31,1.29 20.5 0 1 -0.62,-1.33 z"/>
    <path d="m 363.91,319.81 c 13.87,2.63 26.6,9.35 35.84,20.13 14.46,16.89 22.21,40.73 25.93,63.05 q 0.11,0.67 -0.48,1.03 -23.28,13.86 -44.52,22.12 c -11.73,4.57 -25.54,8.27 -37.94,6.2 -5.84,-0.97 -14.69,-8.68 -16.85,-14.18 q -1.62,-4.13 -2.04,-13.18 -0.45,-9.71 0.29,-21.75 1.69,-27.64 3.41,-58.27 a 1.18,1.16 -22 0 1 0.33,-0.76 q 0.76,-0.78 1.88,-1.05 11.52,-2.78 22.73,-3.71 6.58,-0.54 11.42,0.37 z"/>
  </g>
</svg>