<?xml version="1.0" encoding="UTF-8"?>
<svg xmlns="http://www.w3.org/2000/svg" viewBox="-50 -40 734 1538" width="100%" height="100%">
  <g id="deltoids" class="muscle-base">
    <path d="m 215.94,289.45 c -21.5,15.97 -35.81,41.69 -45.18,66.64 a 0.54,0.54 0 0 1 -0.75,0.3 c -1.36,-0.68 -2.91,-1.32 -2.88,-3.16 q 0.36,-18.38 4.6,-33.36 c 4.12,-14.55 12.32,-23.54 25.35,-31.51 5.06,-3.09 15.01,-5.79 18.99,0.41 a 0.51,0.51 0 0 1 -0.13,0.68 z"/>
    <path d="m 233,326.79 c -5.53,27.66 -26.78,45.52 -55.22,43.68 a 0.54,0.54 0 0 1 -0.5,-0.61 c 4.48,-32.74 28.09,-58.38 54.53,-76.41 q 2.3,-1.57 4.86,-0.86 a 1.61,1.61 0 0 1 1.18,1.72 Q 236,311.81 233,326.79 Z"/>
    <path d="M 470.13,355.96 C 463.5,338.45 454.92,322.09 443.6,307.63 q -8.16,-10.43 -18.47,-18.02 a 0.95,0.94 33.2 0 1 -0.26,-1.22 c 3.34,-5.94 13.06,-3.27 17.74,-0.68 13.57,7.5 23.02,17.38 27.32,32.28 q 3.99,13.8 4.29,33.5 0.02,0.68 -0.47,1.17 -1.06,1.07 -2.71,1.71 a 0.71,0.71 0 0 1 -0.91,-0.41 z"/>
    <path d="m 463.02,370.48 c -23.85,1.37 -44.22,-11.24 -52.35,-33.91 q -2.31,-6.45 -3.64,-14.34 -2.64,-15.63 -3.89,-27.26 -0.28,-2.56 2.36,-2.63 1.96,-0.05 4.36,1.61 c 25.95,18.03 49.33,43.22 53.78,75.78 q 0.1,0.71 -0.62,0.75 z"/>
  </g>
</svg>