<?xml version="1.0" encoding="UTF-8"?>
<svg xmlns="http://www.w3.org/2000/svg" viewBox="-50 -40 734 1538" width="100%" height="100%">
  <g id="feet" class="muscle-base">
    <path d="m 268.26,1427.94 c -13.55,0.97 -28,-0.1 -40.94,-5.21 a 0.76,0.76 0 0 1 -0.35,-1.14 c 8.83,-12.76 18.97,-25.24 27.65,-37.39 q 0.72,-1 1.89,-0.61 11.12,3.76 18.81,14.19 c 1.66,2.25 0.2,9.63 -0.4,12.23 q -2.17,9.25 -5.67,17.23 a 1.19,1.17 -79.8 0 1 -0.99,0.7 z"/>
    <path d="m 279.15,1427.43 c -2.43,-4.43 -2.1,-22.42 2.82,-25.6 q 0.48,-0.31 0.93,0.02 c 4.5,3.21 11.09,10.03 10.33,15.88 q -0.43,3.39 -0.54,7.02 a 3.3,3.3 0 0 1 -3.32,3.21 l -9.41,-0.05 q -0.55,0 -0.81,-0.48 z"/>
    <path d="m 382.04,1384.42 q 1.51,-0.66 3.03,-0.87 0.57,-0.07 0.91,0.39 l 27.73,37.1 a 1.23,1.22 61 0 1 -0.53,1.87 c -12.37,4.87 -27.24,6.04 -40.29,5.05 a 1.5,1.49 81 0 1 -1.27,-0.93 c -3.14,-7.8 -6.11,-16.5 -6.82,-25.44 q -0.2,-2.47 0.96,-4.02 6.68,-8.97 16.28,-13.15 z"/>
    <path d="m 347.64,1416.45 c -0.34,-4.76 6.41,-11.73 10.12,-14.46 a 1.41,1.4 -37.2 0 1 1.94,0.26 c 2.44,3.09 2.86,7.16 3.19,10.93 q 0.6,6.77 -0.53,13.21 a 1.96,1.95 5.2 0 1 -1.95,1.62 l -9.39,-0.1 a 2.74,2.74 0 0 1 -2.7,-2.53 q -0.35,-4.33 -0.68,-8.93 z"/>
  </g>
</svg>