<?xml version="1.0" encoding="UTF-8"?>
<svg xmlns="http://www.w3.org/2000/svg" viewBox="-50 -40 734 1538" width="100%" height="100%">
  <g id="forearm" class="muscle-base">
    <path d="m 80.93,647.88 c 14.1,-28.26 32.44,-54.05 52.98,-78.01 6.28,-7.32 12.52,-13.04 22.3,-14.76 a 0.44,0.44 0 0 1 0.44,0.67 q -33.59,51.14 -75.12,92.53 -1.62,1.61 -0.6,-0.43 z"/>
    <path d="m 85.85,647.42 q 11.51,-11.53 23.19,-23.33 6.63,-6.71 16.74,-19.55 c 13.51,-17.18 26.63,-37.24 39.52,-56.02 a 1.08,1.08 0 0 1 1.85,0.11 q 0.51,0.96 0.26,2.09 c -1.73,8.15 -5.44,14.39 -10.55,22.73 q -11.14,18.18 -25.7,34.1 -18.98,20.74 -39.21,37.61 -2.7,2.25 -6.02,3.82 -0.28,0.13 -0.57,0.24 -1.42,0.54 -1.26,-0.09 0.03,-0.14 0.14,-0.23 0.8,-0.67 1.61,-1.48 z"/>
    <path d="m 158.49,493 c -4.72,28.27 -19.05,55.5 -36.58,78.04 q -10.8,13.89 -20.36,28.46 -4.33,6.6 -7.59,13.38 c -5.52,11.5 -11.24,22.8 -19.41,32.11 q -1.49,1.7 -0.81,-0.46 c 3.77,-11.82 9.38,-23.48 14.74,-35.02 3.82,-8.21 7.5,-17.64 10.42,-26.75 7.62,-23.71 16.99,-47.77 29.34,-68.38 7.41,-12.37 17.14,-24.67 29.9,-31.38 a 0.72,0.71 -14.7 0 1 1.05,0.61 q 0.12,4.42 -0.7,9.39 z"/>
    <path d="m 176.77,536.74 c -5.58,2.64 -11.34,4.68 -16.45,7.91 -5.83,3.68 -11.93,7.82 -18.84,8.99 a 1.21,1.21 0 0 1 -1.41,-1.13 c -0.29,-5.42 4.57,-12.34 7.66,-16.52 q 10.15,-13.75 23.71,-26.94 c 1.35,-1.32 3.26,-2.11 5.16,-1.83 a 1.02,1.02 0 0 1 0.86,0.86 q 2.03,13.42 -0.05,27.79 a 1.12,1.12 0 0 1 -0.64,0.87 z"/>
    <path d="m 478.46,543.49 c -4.04,-2.35 -8.89,-4.3 -13.28,-6.25 -2.13,-0.95 -1.9,-3.18 -2.11,-5.15 q -1.32,-12.65 0.43,-23.9 a 1.38,1.38 0 0 1 1.54,-1.16 c 1.68,0.21 3.26,0.93 4.5,2.12 q 12.39,11.96 22.31,25.05 c 2.67,3.51 10.26,13.94 8.99,18.38 a 1.51,1.51 0 0 1 -1.8,1.06 q -5.3,-1.25 -8.83,-3.31 -5.39,-3.14 -11.75,-6.84 z"/>
    <path d="m 480.72,568.04 c -3.26,-5.55 -5.96,-11.12 -7.24,-17.31 q -0.33,-1.61 0.58,-2.51 a 1.03,1.03 0 0 1 1.57,0.16 c 13.24,19.66 27,40.11 41.05,58.18 11.56,14.88 25.47,28 38.8,41.13 q 0.56,0.55 1.06,1.21 0.78,1.05 -0.44,0.58 -3.39,-1.29 -6.75,-4.08 -19.67,-16.3 -37.87,-35.97 -17.53,-18.94 -30.76,-41.39 z"/>
    <path d="m 484.61,555.07 c 11.21,1.91 17.39,8.95 24.45,17.26 18.64,21.97 34.4,44.56 47.76,69.37 q 1.9,3.52 3.32,6.62 0.61,1.33 -0.43,0.3 -42.24,-42.1 -75.48,-92.97 -0.48,-0.73 0.38,-0.58 z"/>
    <path d="m 540.63,578.72 c 5.89,18.68 13.76,35.38 21.55,52.65 q 2.61,5.79 4.88,12.9 0.81,2.52 -0.89,0.5 c -7.48,-8.88 -12.5,-17.92 -17.97,-29.24 q -6.73,-13.92 -15.23,-25.62 -8.17,-11.25 -17.48,-23.63 c -15.23,-20.26 -27.78,-45.5 -32.6,-70.62 q -1.21,-6.31 -1.13,-11.97 0.01,-1.19 1.06,-0.64 c 10.4,5.42 18.51,14.3 25.31,24.31 13.82,20.33 24.84,47.05 32.5,71.36 z"/>
  </g>
</svg>