<?xml version="1.0" encoding="UTF-8"?>
<svg xmlns="http://www.w3.org/2000/svg" viewBox="-50 -40 734 1538" width="100%" height="100%">
  <g id="hair" class="muscle-base">
    <path d="m 274.27,0 h 7.5 q 18.53,1.85 32.68,8.03 c 12.49,5.46 24.03,14.94 27.55,28.42 a 2.51,2.49 89.9 0 0 1.78,1.79 c 62.05,16.11 59.99,92.38 46.77,140.06 q -2.56,9.24 -6.49,17.96 c -2.53,5.64 -4.61,7.93 -10.53,9.62 l -0.26,-0.1 q -0.2,-0.09 -0.11,-0.29 3.73,-8.25 6.16,-16.1 a 1.18,1.17 -83.3 0 1 1.03,-0.82 c 9.73,-0.81 11.84,-26.25 11.81,-33.17 q 0,-2.26 -1.89,-3.46 -0.54,-0.35 -1.17,-0.24 -2.13,0.37 -4.08,0.23 c -5.7,-0.39 -8.68,-13.45 -9.55,-17.9 q -2.57,-13.24 -5.09,-28.6 -0.65,-3.97 -2.37,-7.72 a 2.7,2.65 86.8 0 0 -1.54,-1.4 C 357.04,93.05 347.03,89.65 337,88.5 q -7.76,-0.88 -14.28,3.52 c -7.75,5.24 -15.65,10.37 -23.95,14.33 q -15.27,7.3 -31.5,12.13 a 1.86,1.85 -0.3 0 0 -1.25,1.26 c -2.08,7.3 -3.02,14.59 -4.33,22.04 -0.77,4.35 -2.6,10.1 -8.02,10.27 q -1.4,0.05 -2.82,-0.07 -0.58,-0.04 -0.95,0.42 -1.31,1.64 -1.26,3.95 0.23,12.21 3.9,23.14 c 1.3,3.87 3.66,8.51 8.11,9.16 a 1.22,1.22 0 0 1 0.99,0.84 q 5.67,17.91 15.65,33.72 0.59,0.93 0.76,2 0.62,15.66 -0.31,31.34 -0.33,0.59 -0.86,1.05 -10.81,9.38 -25.26,12.16 -3.21,-0.66 -6.4,-1 -2.96,-0.31 -6.35,-1.14 -4.1,-0.99 -8.5,-0.85 -19.12,0.63 -38.2,1.5 -7.58,0.35 -14.57,-0.86 a 1.74,1.73 -87.9 0 1 -1.44,-1.56 c -0.81,-8.45 2.45,-17.97 5.45,-25.54 7.91,-19.94 16.52,-39.52 21.72,-59.8 q 3.8,-14.84 3.36,-29.24 -0.62,-20.32 -5.16,-56.52 -0.99,-7.83 -0.58,-13.57 1.97,-27.81 13.7,-48.73 C 220.38,22.24 229.09,15.56 238.9,9.81 Q 254.97,0.39 274.27,0 Z m 61.27,35.35 c -9.93,-7.61 -23.32,-7.23 -32.78,1.35 q -1.11,1.01 0.36,0.73 c 10.93,-2.09 20.77,-2.59 31.88,-0.82 q 2.75,0.43 0.54,-1.26 z"/>
    <path d="m 302.76,36.7 c 9.46,-8.58 22.85,-8.96 32.78,-1.35 q 2.21,1.69 -0.54,1.26 c -11.11,-1.77 -20.95,-1.27 -31.88,0.82 q -1.47,0.28 -0.36,-0.73 z"/>
  </g>
</svg>