<?xml version="1.0" encoding="UTF-8"?>
<svg xmlns="http://www.w3.org/2000/svg" viewBox="-50 -40 734 1538" width="100%" height="100%">
  <g id="hands" class="muscle-base">
    <path d="m 76.9,699.46 c -1.68,6.93 -4.86,14.23 -9.75,19.73 -3.68,4.16 -10.21,-0.6 -12.84,-3.77 q -4.85,-5.86 -10.18,-10.8 c -2.03,-1.88 -9.58,-5.18 -8.37,-9.02 2,-6.4 4.37,-11.1 8.21,-16.74 q 5.74,-8.42 12.12,-17.03 2.99,-4.03 5.79,-6.44 1.65,-1.41 4.25,-0.76 7.51,1.87 13.62,4.2 a 0.47,0.47 0 0 1 0.29,0.4 q 1.61,20.71 -3.14,40.23 z"/>
    <path d="m 22.64,686.61 q -4.35,2.68 -8.97,5.43 -2,1.2 -3.76,0.73 -2.04,-0.55 -3.53,-1.72 a 1.59,1.59 0 0 1 -0.52,-1.77 q 0.73,-2.04 2.74,-3 5.14,-2.46 10.34,-5.1 a 13.93,13.75 -80.7 0 0 3.47,-2.53 c 3.04,-3.03 6.28,-5.7 9.81,-8.15 q 6.86,-4.77 13.58,-9.74 c 1.68,-1.24 2.71,-1.36 4.54,-0.38 4.66,2.47 -4.59,11.2 -6.57,12.67 -6.61,4.92 -13.95,9.14 -21.13,13.56 z"/>
    <path d="m 32.82,715.26 q -5.43,14.93 -12.06,27.84 -1.98,3.85 -4.71,6.75 a 1.67,1.66 51.8 0 1 -2.66,-0.32 c -2.02,-3.56 1,-13.05 2.6,-16.84 q 6.53,-15.37 13.87,-30.34 1.12,-2.28 2.93,-0.51 l 2.38,2.35 q 1.73,1.69 0.66,3.87 -1.5,3.03 -3.01,7.2 z"/>
    <path d="m 32.18,751.27 q -3.61,7.78 -7.04,13.77 -0.8,1.41 -2.48,1.29 a 2.04,2.04 0 0 1 -1.82,-1.48 q -0.59,-2.11 -0.16,-4.36 1.46,-7.75 4.24,-15.75 5.55,-15.95 13.53,-31.52 a 0.92,0.91 -74.1 0 1 0.89,-0.5 c 2.55,0.22 5.63,1.06 5.19,4.36 q -0.48,3.64 -1.61,7.19 -3.97,12.44 -10.74,27 z"/>
    <path d="m 54.56,726.38 c -4.87,12.51 -10.55,24.74 -16.83,36.91 q -1.47,2.85 -4.02,0.9 -0.2,-0.16 -0.33,-0.36 -1.89,-2.86 -0.7,-5.81 c 4.9,-12.05 9.63,-24.27 15.68,-36.05 q 0.94,-1.84 2.66,-0.68 l 2.47,1.68 q 1.89,1.28 1.07,3.41 z"/>
    <path d="m 53.04,752.14 c 1.93,-10.58 3.66,-20.18 11.74,-27.88 a 0.88,0.88 0 0 1 1.43,0.33 q 0.18,0.48 0.07,0.95 -3.65,14.78 -9.97,27.42 -0.75,1.49 -1.97,2.17 a 1.06,1.06 0 0 1 -1.57,-1.02 q 0.09,-0.98 0.27,-1.97 z"/>
    <path d="m 572.57,717.95 c -4.99,-6.62 -7.75,-14.53 -9.42,-22.45 q -3.74,-17.75 -2.3,-36.07 0.04,-0.54 0.55,-0.72 6.91,-2.55 14.55,-4.31 a 3.01,2.98 -33.7 0 1 2.4,0.47 q 2.39,1.67 4.36,4.26 11.12,14.61 17.14,24.22 2.19,3.48 3.91,8.26 c 1.42,3.93 2.9,6.43 -1.05,8.84 -6.91,4.23 -11.6,9.71 -16.7,15.64 q -2.2,2.56 -5.58,4.02 -4.71,2.02 -7.86,-2.16 z"/>
    <path d="m 629.7,692.91 q -0.88,0.05 -1.63,-0.39 -16.99,-9.79 -30.39,-19.09 -5.44,-3.78 -8.34,-10.22 a 1.71,1.66 45.9 0 1 0,-1.38 c 0.82,-1.77 3.4,-2.74 5.14,-1.47 6.84,4.98 13.95,9.43 20.22,14.76 2.49,2.13 4.62,4.61 7.54,6.13 q 5.16,2.68 10.13,5.06 1.59,0.76 2.51,2.34 a 1.98,1.97 56.7 0 1 -0.53,2.58 q -2.03,1.52 -4.65,1.68 z"/>
    <path d="m 619.38,741.59 c -5.55,-10.95 -9.91,-22.4 -14.42,-34.16 q -0.76,-1.97 0.82,-3.38 1.39,-1.24 2.48,-2.21 1.76,-1.58 2.8,0.54 8.21,16.69 14.65,32.42 2.73,6.68 2.32,13.6 -0.1,1.72 -1.83,1.98 a 1.61,1.58 -24.2 0 1 -1.45,-0.54 q -2.91,-3.38 -5.37,-8.25 z"/>
    <path d="m 615.42,764.65 c -7.37,-14.18 -14.47,-29.6 -18.64,-45 q -0.59,-2.21 -0.29,-4.52 0.07,-0.54 0.54,-0.83 1.9,-1.18 4.13,-1.51 1,-0.15 1.46,0.75 7.03,13.62 12.86,29.78 3.2,8.87 4.64,16.66 0.36,1.96 0.12,4.04 c -0.34,2.92 -3.74,2.72 -4.82,0.63 z"/>
    <path d="M 603.2,763.32 C 597.32,751.95 590.92,738.6 586.42,726.4 q -0.8,-2.15 1.08,-3.48 l 2.22,-1.57 q 1.83,-1.29 2.86,0.69 c 6.13,11.73 10.79,24.28 15.74,36.17 q 1.16,2.78 -0.76,5.72 -0.12,0.18 -0.3,0.32 -2.58,1.93 -4.06,-0.93 z"/>
    <path d="m 585.43,754.04 c -5.15,-8.61 -8.65,-19.26 -10.81,-28.78 q -0.46,-2.03 1.32,-0.96 1.2,0.73 2.2,1.88 c 6.71,7.78 8.51,18.11 10.03,28.15 a 0.6,0.59 -12.9 0 1 -0.42,0.66 q -1.5,0.43 -2.32,-0.95 z"/>
  </g>
</svg>