<?xml version="1.0" encoding="UTF-8"?>
<svg xmlns="http://www.w3.org/2000/svg" viewBox="-50 -40 734 1538" width="100%" height="100%">
  <path id="head" class="muscle-base" d="m 333.98559,84.905706 c 18.21278,1.634629 31.69605,8.136487 37.2945,12.907787 5.05164,4.305277 7.19576,45.031667 12.65256,51.693107 1.8636,2.27501 8.59028,-1.54865 8.92968,2.02054 0.963,10.12704 -1.13955,23.87461 -5.01774,34.09876 -2.76635,7.29296 -5.63968,2.08994 -7.32662,6.61326 -4.20041,11.26291 -13.37526,37.43537 -39.7435,47.10729 -18.23028,5.87857 -27.73171,4.95957 -42.38166,-0.61061 -10.53425,-7.41801 -26.32238,-15.61151 -35.48901,-45.82179 -2.15595,-7.10532 -5.07953,-2.63217 -8.24698,-7.1806 -8.2816,-11.89228 -6.24233,-24.37427 -6.11257,-33.09312 1.24002,-3.08768 8.39807,0.42491 9.86574,-4.98496 1.75809,-6.48033 5.74751,-21.52642 6.67934,-30.11758 42.80886,-10.2119 49.53647,-34.194904 68.89626,-32.632084 z"/>
</svg>