<?xml version="1.0" encoding="UTF-8"?>
<svg xmlns="http://www.w3.org/2000/svg" viewBox="-50 -40 734 1538" width="100%" height="100%">
  <g id="knees" class="muscle-base">
    <path d="m 258.39,1012.52 q -5.64,-13.48 -7.66,-29.52 -0.05,-0.4 0.28,-0.64 10.7,-7.7 22.82,-4.11 c 5.29,1.57 4.59,5.57 4.3,9.79 -0.9,12.75 -3.27,25.99 -10.59,36.26 a 1.05,1.05 0 0 1 -1.64,0.09 q -4.73,-5.21 -7.51,-11.87 z"/>
    <path d="m 258.71,1030.63 c 3.61,6.97 7.98,15.68 6.95,23.65 a 0.48,0.48 0 0 1 -0.72,0.35 l -18.34,-11.02 q -0.38,-0.23 -0.55,-0.64 -1,-2.44 -1.32,-4.76 -3.61,-26.35 -4.29,-51.87 -0.06,-2.2 0.39,-0.04 c 3.24,15.52 10.35,29.77 17.88,44.33 z"/>
    <path d="m 288.4,985.22 q 1.73,22.58 1.26,41.7 -0.04,1.47 -0.76,3.07 -4.6,10.16 -10.25,24.15 c -2.27,5.6 -3.1,11.54 -5.89,17 q -0.2,0.39 -0.5,0.07 -0.38,-0.42 -0.45,-1 c -1.47,-12.75 1.68,-26.74 4.89,-38.94 4.36,-16.65 9.53,-33.85 10.59,-51.47 q 0.01,-0.22 0.19,-0.33 0.05,-0.02 0.1,-0.02 0.14,0.02 0.16,0.16 0.44,2.76 0.66,5.61 z"/>
    <path d="m 367.17,978.19 c 7.47,-2.33 16.25,-0.86 22.63,4.13 q 0.45,0.35 0.38,0.92 -1.87,15.08 -7.33,28.55 -2.94,7.24 -7.89,12.74 a 0.87,0.87 0 0 1 -1.34,-0.05 c -8.34,-10.84 -10.82,-27.73 -10.91,-41.25 -0.01,-2.65 2.18,-4.32 4.46,-5.04 z"/>
    <path d="m 369.06,1070.47 q -0.22,1.65 -1.01,0.18 c -2.79,-5.17 -3.42,-10.89 -5.57,-16.11 q -5.2,-12.65 -10.53,-24.91 c -0.38,-0.88 -0.8,-1.93 -0.81,-2.92 q -0.26,-23.13 1.85,-46.89 a 0.27,0.26 -77 0 1 0.36,-0.23 l 0.25,0.11 q 0.13,0.05 0.14,0.19 0.36,9.87 2.31,18.26 4.17,17.95 9.24,37.46 c 3.02,11.63 5.3,23.46 3.77,34.86 z"/>
    <path d="m 378.49,1038.47 q 5.25,-11 11.25,-23 6.8,-13.59 10.56,-29.93 0.03,-0.15 0.18,-0.19 0.05,-0.01 0.1,0 0.1,0.01 0.09,0.11 -0.84,19 -2.62,37.31 -1.13,11.63 -2.64,19.1 -0.25,1.26 -1.49,1.99 -10.01,5.93 -17.84,10.76 a 0.53,0.53 0 0 1 -0.8,-0.37 c -0.79,-5.16 1.07,-11.29 3.21,-15.78 z"/>
  </g>
</svg>