<?xml version="1.0" encoding="UTF-8"?>
<svg xmlns="http://www.w3.org/2000/svg" viewBox="-50 -40 734 1538" width="100%" height="100%">
  <g id="neck" class="muscle-base">
    <path d="m 332.05,262.18 c -0.78,8.99 -5.96,18.06 -11.27,26.44 a 0.35,0.35 0 0 1 -0.59,0.01 q -6.05,-9.29 -9.58,-18.59 -1.68,-4.42 -1.62,-8.04 0.06,-3.36 4.03,-3.55 6.44,-0.31 14.09,-0.13 c 2.41,0.05 5.19,0.99 4.94,3.86 z"/>
    <path d="m 290.15,290.93 c 3.28,4.65 5.62,9.8 7.15,15.32 0.7,2.53 -1.37,5.04 -3.97,5.05 q -6.56,0.04 -11.88,-2.03 a 2.07,2.06 14.4 0 1 -1.3,-2.18 c 0.77,-5.99 4.87,-11.91 8.89,-16.23 a 0.72,0.71 -41.3 0 1 1.11,0.07 z"/>
    <path d="m 301.06,294.13 c -3.51,-6.07 -6.56,-12.38 -9.23,-18.87 q -1.42,-3.46 -1.56,-6.85 -0.36,-8.56 0.86,-17.74 a 0.44,0.44 0 0 1 0.53,-0.37 q 0.46,0.1 0.79,0.48 4.65,5.35 7.86,11.31 c 6.42,11.93 11.65,25.19 18.44,37.61 a 5.28,5.26 30.8 0 1 0.66,2.59 L 319.3,321 a 0.79,0.79 0 0 1 -0.79,0.79 c -1.83,0 -3.44,-1.1 -4.21,-2.73 q -5.68,-11.89 -13.24,-24.93 z"/>
    <path d="m 328.11,315.98 c -1.39,2.8 -1.85,5.31 -5.45,5.84 a 0.92,0.91 85.6 0 1 -1.04,-0.9 q -0.09,-9.72 -0.08,-18.23 0,-1.57 0.75,-3.05 6.71,-13.16 12.25,-25.58 c 3.49,-7.85 8.12,-17.17 14.42,-23.56 q 0.19,-0.18 0.45,-0.19 a 0.43,0.42 -3.6 0 1 0.44,0.38 q 0.95,7.84 0.93,15.61 -0.02,4.3 -1.34,7.91 -3.03,8.27 -7.56,16.2 -8.05,14.11 -13.77,25.57 z"/>
    <path d="m 343.58,306.54 c 1.42,-5.58 3.9,-10.86 7.19,-15.57 a 0.69,0.68 -50.1 0 1 1.04,-0.1 c 3.9,3.84 9.01,11.14 8.89,17.13 a 1.07,1.06 79.1 0 1 -0.65,0.97 q -5.44,2.34 -12.5,2.38 c -2.39,0.01 -4.57,-2.43 -3.97,-4.81 z"/>
  </g>
</svg>