<?xml version="1.0" encoding="UTF-8"?>
<svg xmlns="http://www.w3.org/2000/svg" viewBox="-50 -40 734 1538" width="100%" height="100%">
  <g id="quadriceps" class="muscle-base">
    <path d="m 250.69,888.3 q -16.76,-40.15 -28.04,-78.67 -9.66,-32.96 -14.75,-66.84 c -6.22,-41.38 -6.25,-81.5 4.58,-120.54 q 0.12,-0.43 0.43,-0.11 0.42,0.42 0.59,0.99 22.71,76.86 50.06,155.88 0.82,2.37 1.12,4.78 4.02,31.91 4.89,65.81 c 0.88,34.39 -0.14,66.83 -3.55,99.57 -0.42,4.08 -1.48,7.64 -3.4,11.1 a 1.74,1.74 0 0 1 -1.36,0.9 c -3.47,0.33 -9.58,0.21 -9.46,-4.63 q 0.8,-32.72 -0.01,-63.12 -0.07,-2.67 -1.1,-5.12 z"/>
    <path d="m 237.75,955.7 c -18.56,-47.89 -33.57,-96.23 -39.84,-146.62 -3.58,-28.72 -3.69,-58.65 1.76,-86.95 q 0.62,-3.18 0.81,0.06 0.5,8.53 1.83,17.04 3.42,21.88 10.35,47.5 6.6,24.41 13.5,49.26 2.72,9.81 5.92,19.09 4.05,11.74 7.55,25.02 1.76,6.7 2.16,12.33 2,28.5 1.14,55.08 c -0.12,3.52 -0.98,6.35 -3.98,8.55 a 0.79,0.79 0 0 1 -1.2,-0.36 z"/>
    <path d="m 301.11,919.16 c -0.02,16.26 -1.13,34.39 -10.87,47.81 -1.99,2.73 -6.98,1.8 -10.02,1.14 -1.09,-0.24 -1.35,-1.1 -1.62,-2.04 -3.49,-11.83 -3.03,-24.65 -1.79,-37.03 q 1.41,-14.09 3.35,-26.37 1.6,-10.13 1.54,-18.61 -0.09,-12.6 -1.48,-24.36 c -1.65,-13.85 -3.88,-27.85 -2.4,-41.77 a 0.32,0.32 0 0 1 0.4,-0.28 q 0.4,0.1 0.57,0.48 c 14.17,32.12 22.37,65.88 22.32,101.03 z"/>
    <path d="m 390.96,886.41 q -1.98,4.65 -2.04,9.09 -0.45,33.06 0.22,61.74 c 0.09,3.94 -6.78,4.21 -9.43,3.95 a 1.8,1.79 -10.8 0 1 -1.44,-0.97 c -1.51,-2.91 -2.67,-5.71 -3.07,-9.04 q -1.93,-16.27 -2.84,-32.46 c -2.55,-44.99 -1.64,-90.5 3.77,-134.26 q 0.37,-2.95 1.26,-5.54 26.45,-76.29 50.24,-156.54 a 0.39,0.38 21.6 0 1 0.55,-0.23 q 0.31,0.16 0.41,0.51 c 10.18,37.82 10.57,76.54 5.14,115.55 q -4.46,32.04 -13.33,63.85 -12.28,44.03 -29.44,84.35 z"/>
    <path d="m 441.32,723.15 q 5.4,27.88 3.91,59.43 c -1.5,31.66 -7.16,62.78 -15.56,93.66 q -10.93,40.18 -26.56,79.46 a 0.8,0.8 0 0 1 -1.23,0.34 c -4.09,-3.18 -3.84,-7.55 -3.96,-12.09 q -0.59,-24.2 1.07,-50.23 0.42,-6.4 2.05,-12.77 3.38,-13.22 8.06,-26.98 3.21,-9.44 5.93,-19.09 c 7.96,-28.15 15.34,-53.97 20.99,-81.11 q 3.3,-15.87 4.53,-32.62 0.01,-0.1 0.11,-0.14 l 0.25,-0.09 q 0.11,-0.04 0.12,0.07 0.06,0.98 0.29,2.16 z"/>
    <path d="m 350.02,966.12 c -9.24,-14.15 -10.21,-31.4 -10.24,-48.19 -0.07,-33.99 8.51,-69.02 22.57,-100.06 a 0.51,0.49 -76.6 0 1 0.45,-0.29 q 0.28,0 0.31,0.28 c 0.83,7.48 0.62,15.88 -0.25,23.21 -1.72,14.59 -3.74,28.99 -3.61,44.11 q 0.06,8 1.44,16.9 1.82,11.87 3.26,24.93 c 1.49,13.54 2.18,28.24 -1.97,40.04 a 1.57,1.55 2.7 0 1 -1.11,1 q -3.84,0.9 -7.13,0.61 -2.19,-0.19 -3.72,-2.54 z"/>
  </g>
</svg>