<?xml version="1.0" encoding="UTF-8"?>
<svg xmlns="http://www.w3.org/2000/svg" viewBox="-50 -40 734 1538" width="100%" height="100%">
  <g id="tibialis" class="muscle-base">
    <path d="m 260.21,1135.29 c 4.48,29.68 7.59,58.82 9.36,87.72 0.53,8.66 1.47,17.39 2.79,25.97 q 1.84,11.96 7.34,33.23 0.5,1.94 1.04,7.01 0.48,4.54 -2.34,7.74 a 0.6,0.6 0 0 1 -0.99,-0.15 q -1.61,-3.47 -2.33,-7.07 -5.47,-27.17 -8.25,-45.03 -4.18,-26.84 -7.6,-47.71 -0.97,-5.95 -2.27,-12 -7.08,-33.02 -14.69,-65.86 -1.12,-4.84 -2.44,-9.69 -1.98,-7.22 -2.28,-9.76 -2.41,-20.6 1.44,-43.08 0.25,-1.46 0.73,-0.06 7.12,20.57 13.32,44.54 4.83,18.73 7.17,34.2 z"/>
    <path d="m 367.02,1257.45 q 3.27,-15.94 4.47,-35.75 2.4,-39.61 7.94,-77.98 2.44,-16.87 5.47,-30.17 6.3,-27.69 16.13,-56.67 0.69,-2.03 1.04,0.08 2.43,14.55 2.2,31.01 -0.15,10.91 -2.78,20.08 -1.29,4.53 -2.34,9.1 -7.34,31.94 -13.88,61.81 -2.12,9.66 -3.56,18.43 c -4.93,29.99 -9.41,60.77 -15.76,91.85 q -0.74,3.61 -2.23,7.21 a 0.86,0.86 0 0 1 -1.48,0.19 q -2.35,-3.11 -2.05,-7.14 0.36,-4.83 1.56,-9.43 3.01,-11.58 5.27,-22.62 z"/>
  </g>
</svg>