<?xml version="1.0" encoding="UTF-8"?>
<svg xmlns="http://www.w3.org/2000/svg" viewBox="-50 -40 734 1538" width="100%" height="100%">
  <g id="trapezius" class="muscle-base">
    <path d="m 241.01,294.28 c 12.76,-8.28 25.21,-16.07 39.54,-21.44 2.58,-0.96 6.02,0.04 5.63,3.51 q -0.44,3.92 -1.62,5.3 c -6.48,7.58 -12.74,12.81 -19.24,19.14 -1.03,1.01 -1.87,1.15 -3.25,1.03 q -8.13,-0.69 -18.79,-2.97 -2.99,-0.65 -2.7,-3.86 0.05,-0.46 0.43,-0.71 z"/>
    <path d="m 366.31,275.29 c 12,4.97 22.67,11.96 33.55,18.94 q 0.51,0.33 0.54,0.94 c 0.08,1.63 -0.71,3.2 -2.44,3.59 q -9.65,2.18 -18.62,2.99 c -1.26,0.11 -2.4,0.24 -3.39,-0.7 q -5.03,-4.78 -10.97,-10.25 -6.53,-6.01 -8.56,-9.16 -1.87,-2.89 -1.63,-6.77 0.03,-0.49 0.35,-0.85 c 3.04,-3.4 7.94,-0.07 11.17,1.27 z"/>
  </g>
</svg>