<?xml version="1.0" encoding="UTF-8"?>
<svg xmlns="http://www.w3.org/2000/svg" viewBox="-50 -40 734 1538" width="100%" height="100%">
  <g id="triceps" class="muscle-base">
    <path d="m 203.67,452.99 c -7.1,14.55 -18.61,30.01 -32.29,39.49 q -2.32,1.61 -4.85,0.35 l -0.31,-0.15 q -2.42,-1.22 -0.37,-2.98 c 17.2,-14.83 28.72,-32 37.23,-52.62 q 0.8,-1.93 2.34,-3.04 a 1.28,1.28 0 0 1 1.8,0.31 q 1.35,1.95 0.97,4.41 -1.1,7.22 -4.52,14.23 z"/>
    <path d="m 442.12,446.42 q 12.14,25.77 33.26,43.55 1.47,1.24 -0.14,2.3 l -0.63,0.42 a 4.39,4.37 45.8 0 1 -4.92,-0.08 q -8.08,-5.68 -15.21,-13.9 c -9.9,-11.44 -19.12,-25.17 -21.69,-39.38 q -0.62,-3.4 1.39,-5.43 0.44,-0.44 0.99,-0.15 1.54,0.81 2.17,2.22 2.35,5.31 4.78,10.45 z"/>
  </g>
</svg>