<svg xmlns="http://www.w3.org/2000/svg" viewBox="90 55 220 280" width="100%" height="100%">
  <defs>
    
    <radialGradient id="bg" cx="50%" cy="40%" r="60%">
      <stop offset="0%" stop-color="#171528" />
      <stop offset="100%" stop-color="#0f0d1a" />
    </radialGradient>
    
    <filter id="softGlow" x="-30%" y="-30%" width="160%" height="160%">
      <feGaussianBlur stdDeviation="14" result="blur" />
      <feMerge>
        <feMergeNode in="blur" />
        <feMergeNode in="SourceGraphic" />
      </feMerge>
    </filter>
  </defs>

  
  <path d="M 178 88 L 178 72 Q 200 66 222 72 L 222 88 Q 200 96 178 88 Z" fill="#4a4660" stroke="#2d2a42" stroke-width="2.5" stroke-linejoin="round" />
  
  <path d="M 186 80 Q 190 72 188 66" fill="none" stroke="#3a3650" stroke-width="1.5" />
  <path d="M 214 80 Q 210 72 212 66" fill="none" stroke="#3a3650" stroke-width="1.5" />
  <path d="M 200 84 L 200 68" fill="none" stroke="#3a3650" stroke-width="1.5" />

  
  <path d="M 162 88 Q 200 76 238 88 L 248 106 Q 200 98 152 106 Z" fill="#4a4660" stroke="#2d2a42" stroke-width="2.5" stroke-linejoin="round" />

  
  <path d="M 148 100 Q 112 110 104 148 Q 108 182 132 188 Q 146 170 148 140 Z" fill="#4a4660" stroke="#2d2a42" stroke-width="2.5" stroke-linejoin="round" />
  <path d="M 140 108 Q 122 126 118 152" fill="none" stroke="#3a3650" stroke-width="1.5" />
  <path d="M 144 124 Q 128 142 126 166" fill="none" stroke="#3a3650" stroke-width="1.5" />

  
  <path d="M 252 100 Q 288 110 296 148 Q 292 182 268 188 Q 254 170 252 140 Z" fill="#4a4660" stroke="#2d2a42" stroke-width="2.5" stroke-linejoin="round" />
  <path d="M 260 108 Q 278 126 282 152" fill="none" stroke="#3a3650" stroke-width="1.5" />
  <path d="M 256 124 Q 272 142 274 166" fill="none" stroke="#3a3650" stroke-width="1.5" />

  
  <path d="M 132 188 Q 114 212 112 254 Q 118 284 138 280 Q 150 260 150 228 Z" fill="#4a4660" stroke="#2d2a42" stroke-width="2.5" stroke-linejoin="round" />
  <path d="M 130 200 Q 122 224 122 260" fill="none" stroke="#3a3650" stroke-width="1.5" />

  
  <path d="M 268 188 Q 286 212 288 254 Q 282 284 262 280 Q 250 260 250 228 Z" fill="#4a4660" stroke="#2d2a42" stroke-width="2.5" stroke-linejoin="round" />
  <path d="M 270 200 Q 278 224 278 260" fill="none" stroke="#3a3650" stroke-width="1.5" />

  
  <path d="M 150 228 Q 134 264 130 306 Q 140 330 162 324 Q 170 296 168 260 Z" fill="#3e3a54" stroke="#2d2a42" stroke-width="2" stroke-linejoin="round" />

  
  <path d="M 250 228 Q 266 264 270 306 Q 260 330 238 324 Q 230 296 232 260 Z" fill="#3e3a54" stroke="#2d2a42" stroke-width="2" stroke-linejoin="round" />

  
  <path d="M 168 244 Q 164 284 168 320 L 200 328 L 232 320 Q 236 284 232 244 L 200 238 Z" fill="#3e3a54" stroke="#2d2a42" stroke-width="2" stroke-linejoin="round" />
  
  <path d="M 166 264 L 234 264" fill="none" stroke="#2d2a42" stroke-width="1.5" />
  <path d="M 166 288 L 234 288" fill="none" stroke="#2d2a42" stroke-width="1.5" />
  <path d="M 167 308 L 233 308" fill="none" stroke="#2d2a42" stroke-width="1.5" />
  <path d="M 200 240 L 200 325" fill="none" stroke="#2d2a42" stroke-width="1.5" />

  
  <path d="M 140 296 Q 146 308 144 322" fill="none" stroke="#3a3650" stroke-width="2" />
  <path d="M 146 306 Q 150 316 148 328" fill="none" stroke="#3a3650" stroke-width="2" />
  <path d="M 260 296 Q 254 308 256 322" fill="none" stroke="#3a3650" stroke-width="2" />
  <path d="M 254 306 Q 250 316 252 328" fill="none" stroke="#3a3650" stroke-width="2" />

  
  
  <path d="M 152 98            C 128 104, 112 126, 114 158            C 116 180, 132 200, 154 206            C 172 212, 188 202, 198 192            L 200 190 L 202 192            C 212 202, 228 212, 246 206            C 268 200, 284 180, 286 158            C 288 126, 272 104, 248 98            C 230 94, 214 104, 200 118            C 186 104, 170 94, 152 98 Z" fill="#7c3aed" opacity="0.18" filter="url(#softGlow)" />

  
  <path d="M 152 98            C 128 104, 112 126, 114 158            C 116 180, 132 200, 154 206            C 172 212, 188 202, 198 192            L 200 174 L 200 144            C 190 126, 180 110, 170 102            C 164 99, 158 98, 152 98 Z" fill="#8b5cf6" stroke="#a78bfa" stroke-width="2" stroke-linejoin="round" />

  
  <path d="M 152 98            C 144 100, 136 108, 130 120            C 138 124, 150 122, 160 116            C 170 110, 178 108, 170 102            C 164 99, 158 98, 152 98 Z" fill="#a78bfa" stroke="#c4b5fd" stroke-width="1" stroke-linejoin="round" />

  
  <path d="M 248 98            C 272 104, 288 126, 286 158            C 284 180, 268 200, 246 206            C 228 212, 212 202, 202 192            L 200 174 L 200 144            C 210 126, 220 110, 230 102            C 236 99, 242 98, 248 98 Z" fill="#8b5cf6" stroke="#a78bfa" stroke-width="2" stroke-linejoin="round" />

  
  <path d="M 248 98            C 256 100, 264 108, 270 120            C 262 124, 250 122, 240 116            C 230 110, 222 108, 230 102            C 236 99, 242 98, 248 98 Z" fill="#a78bfa" stroke="#c4b5fd" stroke-width="1" stroke-linejoin="round" />

  
  <path d="M 136 116 Q 148 132 166 142" fill="none" stroke="#7c3aed" stroke-width="1.2" opacity="0.6" />
  <path d="M 128 134 Q 146 150 170 160" fill="none" stroke="#7c3aed" stroke-width="1.2" opacity="0.6" />
  <path d="M 124 152 Q 146 168 174 176" fill="none" stroke="#7c3aed" stroke-width="1.2" opacity="0.6" />
  <path d="M 126 170 Q 150 184 178 190" fill="none" stroke="#7c3aed" stroke-width="1.2" opacity="0.5" />
  <path d="M 136 186 Q 158 198 184 200" fill="none" stroke="#7c3aed" stroke-width="1.2" opacity="0.5" />

  <path d="M 264 116 Q 252 132 234 142" fill="none" stroke="#7c3aed" stroke-width="1.2" opacity="0.6" />
  <path d="M 272 134 Q 254 150 230 160" fill="none" stroke="#7c3aed" stroke-width="1.2" opacity="0.6" />
  <path d="M 276 152 Q 254 168 226 176" fill="none" stroke="#7c3aed" stroke-width="1.2" opacity="0.6" />
  <path d="M 274 170 Q 250 184 222 190" fill="none" stroke="#7c3aed" stroke-width="1.2" opacity="0.5" />
  <path d="M 264 186 Q 242 198 216 200" fill="none" stroke="#7c3aed" stroke-width="1.2" opacity="0.5" />

  
  <line x1="200" y1="120" x2="200" y2="192" stroke="#6d28d9" stroke-width="2" opacity="0.8" />

  
  <path d="M 142 94 Q 172 102 200 110 Q 228 102 258 94" fill="none" stroke="#3a3650" stroke-width="2.5" opacity="0.7" />

  
  </svg>