<?xml version="1.0" encoding="UTF-8"?>
<svg xmlns="http://www.w3.org/2000/svg" viewBox="756 0 774 1448" width="100%" height="100%">
  <g id="adductors" class="muscle-base">
    <path d="m 1105.13,759.58 c 5.8,-4.09 12.22,-8.33 18.77,-11.59 a 0.54,0.54 0 0 1 0.76,0.34 q 6.8,24.08 7.01,48.83 0.14,15.6 -0.3,31.35 -0.18,6.57 -1.58,13.23 -3.79,18 -7.08,34.37 -5.52,27.39 -7.25,53.63 -0.01,0.2 -0.21,0.19 h -0.01 q -0.21,0 -0.21,-0.21 0.06,-11.05 -1.13,-21.98 -3.47,-31.95 -10.99,-67.96 c -3.17,-15.15 -5.96,-29.39 -7.82,-44.53 q -1.41,-11.59 -0.64,-23.56 c 0.24,-3.74 7.85,-10.11 10.68,-12.11 z"/>
    <path d="m 1103.25,880.79 q 0.13,-2.03 0.52,-4.03 0.12,-0.59 0.23,0 6.54,34.5 9.4,71 1.16,14.9 0.83,30.46 c -0.35,16.42 -2.06,31.59 -8.52,45.43 q -0.65,1.38 -0.93,-0.12 -1.07,-5.81 -1.74,-12.63 c -4.13,-42 -2.61,-84.7 0.21,-130.11 z"/>
    <path d="m 1170.31,929.79 q -0.01,0.14 -0.14,0.14 h -0.01 q -0.15,0 -0.16,-0.15 c -1.65,-27.23 -6.7,-52.91 -12.71,-80.29 q -1.04,-4.77 -2.03,-9.9 -0.97,-5.04 -1.11,-10.04 -0.71,-25 0,-41.29 0.88,-20.1 6.78,-40.2 a 0.39,0.39 0 0 1 0.58,-0.23 c 9.66,5.72 22.47,11.93 28.7,21.66 q 0.95,1.49 1.03,4.47 c 0.23,9.46 -0.26,19.48 -1.78,29.2 q -3.09,19.91 -8.67,45.97 -4.33,20.25 -8.36,50.7 c -1.32,9.97 -1.83,19.78 -2.12,29.96 z"/>
    <path d="m 1182.66,888.38 c 3.02,46.17 3.96,90.2 -1.62,134.34 q -0.38,3.02 -1.62,0.24 -5.13,-11.5 -6.75,-24.8 -2.53,-20.86 -1.07,-43.33 2.55,-39.34 9.73,-77.33 0.48,-2.54 0.64,0.04 0.36,5.65 0.69,10.84 z"/>
  </g>
</svg>