<?xml version="1.0" encoding="UTF-8"?>
<svg xmlns="http://www.w3.org/2000/svg" viewBox="756 0 774 1448" width="100%" height="100%">
  <g id="calves" class="muscle-base">
    <path d="m 1058.29,1085.75 c 6.08,-36.26 10.83,-64.98 13.27,-97.84 a 0.64,0.63 12.9 0 1 0.87,-0.54 c 4.34,1.73 9.74,5.17 11.34,9.62 q 0.48,1.32 0.33,3.57 c -2.18,33.02 -2.33,66.33 -2.21,98.92 q 0.04,10.61 0.89,19.22 2.51,25.4 2.71,52.08 c 0.09,12.28 -0.31,25.64 -3.38,37.51 q -0.44,1.7 -1.2,3.04 a 1.46,1.45 41.5 0 1 -2.43,0.15 c -11.56,-15.48 -22.57,-30.58 -27.04,-49.16 -1.94,-8.07 -1.22,-16.06 -0.32,-24.08 q 3.25,-29.05 7.17,-52.49 z"/>
    <path d="m 1065.65,1205.72 q 0.18,-0.49 0.65,-0.28 0.57,0.24 0.99,0.74 c 7.66,9.08 12.41,22.27 15.49,34.01 q 4.92,18.73 7.73,38.56 5.06,35.68 6.15,72.03 0.14,4.75 0.25,9.3 0.09,3.29 -3.11,2.5 -0.29,-0.07 -0.59,-0.13 -3.27,-0.66 -3.31,-4 c -0.46,-33.25 -5.05,-66.1 -13.91,-98.69 q -4.29,-15.78 -9.2,-30.12 c -2.89,-8.45 -4,-15.96 -1.14,-23.92 z"/>
    <path d="m 1092.9,1005.49 c 6.21,14.55 10.89,30.05 15.1,45.29 q 10.42,37.71 15.89,75.17 c 2.5,17.09 4.13,34.52 2.57,51.57 -0.69,7.55 -2.44,16.36 -7.25,22.3 a 0.72,0.71 31.3 0 1 -0.84,0.2 q -15.39,-6.63 -22.38,-22.48 -0.37,-0.84 -0.47,-1.77 -7.84,-73.34 -8.63,-146.47 -0.15,-13.23 1,-26.05 0.18,-2.03 0.73,-4.04 a 0.43,0.43 0 0 1 0.78,-0.13 q 2.25,3.5 3.5,6.41 z"/>
    <path d="m 1105.01,1296.15 c 0.31,-3.79 0.81,-7.66 0.78,-11.4 -0.13,-20.92 -0.61,-43.07 2,-63.38 0.83,-6.47 2.37,-14.24 6.84,-19.26 a 0.48,0.48 0 0 1 0.83,0.26 q 2,15.5 0.91,32.56 -1.2,18.89 -3.49,38.19 -1.15,9.79 -1.38,19.57 -0.5,21.82 -2.41,44.66 -0.8,9.48 -2.65,18.21 a 0.62,0.61 -66.5 0 1 -0.96,0.38 q -3.82,-2.71 -4.14,-6.62 -0.59,-7.27 0.39,-17.04 1.85,-18.46 3.28,-36.13 z"/>
    <path d="m 1195.51,999.93 q 1.11,-2 1.54,0.25 0.83,4.43 1.06,9.07 0.79,16.08 0.37,32.68 -1.79,71.08 -8.41,133.14 c -0.54,5.01 -5.87,11.84 -9.39,15.76 -3.68,4.08 -8.74,6.74 -13.52,9.33 q -0.36,0.2 -0.63,-0.11 c -4.85,-5.52 -6.81,-14.78 -7.44,-21.9 -1.74,-19.58 0.51,-41.13 3.73,-60.68 q 6.55,-39.63 18.22,-79.21 3.88,-13.17 8.74,-26 2.41,-6.37 5.73,-12.33 z"/>
    <path d="m 1170.98,1202.22 q 2.43,2.66 3.69,6.26 c 3.13,8.93 4.01,18.89 4.48,28.32 q 1.05,21.18 0.46,40.21 -0.29,9.19 0.45,16.73 1.84,18.75 3.59,37.51 0.69,7.41 0.77,15.52 0.06,5.8 -4.1,9 a 0.89,0.89 0 0 1 -1.42,-0.54 q -2.23,-11.91 -3.17,-25.71 -1.35,-19.53 -1.75,-36.62 -0.22,-9.41 -1.32,-18.68 -2.7,-22.94 -3.76,-42.69 -0.78,-14.6 1.04,-28.98 a 0.6,0.6 0 0 1 1.04,-0.33 z"/>
    <path d="m 1209.54,1220.37 q 3.46,-8.19 9.41,-14.95 a 0.5,0.49 56.8 0 1 0.84,0.18 q 1.93,5.91 1.63,12.13 -0.21,4.19 -2.73,11.81 -8.63,26.04 -13.9,49.21 -8.52,37.45 -9.27,80.13 -0.04,2.72 -2.68,3.4 -0.94,0.24 -1.91,0.38 -2.41,0.33 -2.37,-2.1 0.65,-35.68 4.84,-70.31 c 2.84,-23.48 7.15,-48.63 16.14,-69.88 z"/>
    <path d="m 1234.23,1161.52 c -4.22,19.14 -15.78,34.23 -26.98,49.71 a 1.72,1.72 0 0 1 -3.01,-0.42 q -1.93,-5.29 -2.63,-11.11 -1.51,-12.55 -1.6,-22.65 -0.27,-28.3 2.59,-57.1 0.96,-9.64 1.02,-20.11 0.27,-52.48 -2.22,-101.41 c -0.04,-0.76 0.35,-1.89 0.76,-2.54 q 3.68,-5.85 11.13,-8.53 0.53,-0.19 0.58,0.37 2.93,37.23 10.25,79.5 c 4.59,26.56 9.04,54.75 11.1,81.03 q 0.51,6.47 -0.99,13.26 z"/>
  </g>
</svg>