<?xml version="1.0" encoding="UTF-8"?>
<svg xmlns="http://www.w3.org/2000/svg" viewBox="756 0 774 1448" width="100%" height="100%">
  <g id="deltoids" class="muscle-base">
    <path d="m 1015.26,291.32 c 13.82,-8.28 31.54,1.05 42.43,10.31 a 0.79,0.78 46.2 0 1 -0.02,1.22 c -24.49,19.25 -48.03,41.91 -64.52,68.41 q -0.81,1.29 -0.91,-0.22 c -0.55,-8.02 -1.66,-16.16 -1.47,-24.04 q 0.34,-14.94 4.17,-28.72 4.91,-17.72 20.32,-26.96 z"/>
    <path d="m 1269.98,290.8 c 13.79,8.38 20.48,19.55 22.26,34.89 1.11,9.5 1.29,18.77 0.46,28.54 q -0.73,8.56 -1.29,17.08 -0.08,1.29 -0.8,0.22 c -16.86,-25.21 -37.38,-47.58 -59.38,-68.88 q -0.46,-0.45 0,-0.88 c 9.46,-8.91 18.65,-15.05 32.34,-13.43 2.34,0.28 4.42,1.25 6.41,2.46 z"/>
  </g>
</svg>