<?xml version="1.0" encoding="UTF-8"?>
<svg xmlns="http://www.w3.org/2000/svg" viewBox="756 0 774 1448" width="100%" height="100%">
  <g id="feet" class="muscle-base">
    <path d="m 1079.17,1372.43 q 2.14,-5.13 4.33,-10.15 0.64,-1.46 0.77,0.13 0.19,2.38 0.04,5.19 -0.48,8.92 -1.17,17.73 c -0.55,6.98 -0.51,14.62 0.97,21.25 q 0.81,3.6 3.17,7.55 2.42,4.04 6.98,2.53 2.09,-0.69 2.69,-2.94 c 5.05,-18.81 8.53,-32.57 10.08,-47.69 q 0.17,-1.71 0.65,-0.06 c 4.88,16.71 7.77,34.11 9.71,51.52 a 2.81,2.81 0 0 1 -0.55,2.02 c -5.24,7.01 -14.76,8.75 -23.07,8.71 -8.31,-0.03 -16.89,-1.11 -24.67,-3.97 -3.23,-1.19 -5.27,-5.26 -4.38,-8.25 4.42,-14.8 8.65,-29.67 14.45,-43.57 z"/>
    <path d="m 1206.8,1373.7 q 8.72,22.21 13.81,42.33 0.94,3.7 -1.71,6.53 -1.44,1.54 -5.28,2.63 -14.71,4.18 -29.01,2.49 -9.46,-1.11 -14.96,-6.81 -1.68,-1.75 -1.46,-3.83 2.75,-26.35 9.42,-50.74 0.68,-2.5 0.89,0.09 0.63,7.86 2.59,16.87 2.96,13.59 7.32,30.23 0.79,2.98 3.86,3.47 3.52,0.56 5.1,-1.58 c 2.84,-3.86 4.42,-8.89 4.83,-13.69 0.96,-11.15 -0.35,-22.32 -1,-33 q -0.2,-3.25 0.17,-6.56 0.09,-0.79 0.42,-0.07 2.74,5.83 5.01,11.64 z"/>
  </g>
</svg>