<?xml version="1.0" encoding="UTF-8"?>
<svg xmlns="http://www.w3.org/2000/svg" viewBox="756 0 774 1448" width="100%" height="100%">
  <g id="forearm" class="muscle-base">
    <path d="m 930.6,575.85 q 12.51,-34.52 28.14,-65.44 0.43,-0.86 0.47,0.1 c 0.49,12.97 -1.54,25.43 -3.91,38.74 -2.51,14.09 -8.58,26.84 -13.42,40.42 q -1.72,4.85 -6.72,12.65 -6.65,10.39 -13.96,19.24 -0.97,1.19 -0.94,-0.34 0.15,-6.74 1.54,-13.78 3.2,-16.15 8.8,-31.59 z"/>
    <path d="m 941.59,538.06 c -10.38,28.73 -19.89,57.37 -27.03,86.93 q -2.23,9.27 -3.43,18.85 -0.08,0.65 -0.71,0.78 -2.96,0.63 -5.97,-0.23 c -6.64,-1.91 -6.12,-8.24 -4.18,-13.33 q 16.12,-42.22 33.46,-84.93 5.37,-13.2 12.03,-26.13 2.79,-5.42 6.2,-10.06 1.45,-1.95 0.5,0.29 -5.71,13.57 -10.87,27.83 z"/>
    <path d="m 975.21,499.01 c 1.84,-4.34 5.3,-10.94 10.55,-11.69 3.15,-0.45 8.93,-1.45 11.43,0.58 q 3.23,2.63 1.33,6.34 -3.58,7.04 -8.39,12.41 -7.93,8.86 -17.96,19.2 a 0.33,0.32 -34.8 0 1 -0.53,-0.09 q -1.15,-2.76 -1.06,-6.04 0.31,-10.51 4.63,-20.71 z"/>
    <path d="m 999.09,525.32 q -17.79,35.36 -41.48,67.79 c -7.52,10.28 -15.96,20.81 -26,28.74 a 0.38,0.38 0 0 1 -0.53,-0.06 q -0.12,-0.14 -0.06,-0.3 11.88,-29.53 23.3,-54.73 6.13,-13.51 13.08,-26.59 3.39,-6.37 7.64,-12.19 c 1.13,-1.54 2.35,-1.94 4.17,-1.93 q 4.02,0.02 8.07,0.22 c 3.63,0.18 9.88,-4.42 13.11,-6.8 0.2,-0.14 0.64,-0.23 0.88,-0.2 a 0.39,0.39 0 0 1 0.32,0.53 q -1.15,2.82 -2.5,5.52 z"/>
    <path d="m 1287.36,495.1 q -0.66,-1.22 -1,-2.61 c -0.91,-3.66 3.19,-5.9 6.21,-5.78 q 4.25,0.16 7.87,0.8 c 8.25,1.44 13.07,19.85 14.04,26.73 q 0.78,5.48 -0.26,11.26 a 0.58,0.57 -61.9 0 1 -0.98,0.3 q -8.13,-8.44 -16.02,-16.95 -5.71,-6.16 -9.86,-13.75 z"/>
    <path d="m 1374.91,644.61 a 0.63,0.62 -88.1 0 1 -0.49,-0.53 q -1.21,-9.55 -3.48,-19.07 c -6.9,-28.95 -17.02,-59.28 -27.49,-88.05 q -4.81,-13.23 -10.53,-26.85 -0.87,-2.08 0.48,-0.27 2.91,3.89 5.26,8.23 6.11,11.31 10.9,22.92 19.34,46.92 36.37,92.34 1.24,3.29 0.04,6.8 c -1.45,4.24 -7.09,5.35 -11.06,4.48 z"/>
    <path d="m 1326.82,510.35 c 12.89,26.28 24.62,53.47 32.98,80.83 q 4.59,15.02 5.5,30.08 0.09,1.54 -0.91,0.36 -9.8,-11.56 -17.28,-24.72 -2.96,-5.2 -5.36,-12.12 -2.76,-7.98 -6.01,-15.96 c -4.29,-10.55 -5.9,-21.36 -7.75,-32.59 q -2.18,-13.15 -1.71,-25.77 0.04,-1.12 0.54,-0.11 z"/>
    <path d="m 1354.08,620.73 q 0.96,2.42 -1,0.71 -9.65,-8.41 -17.52,-18.38 -24.99,-31.7 -45.4,-70.39 -3.25,-6.15 -6.17,-12.68 -0.09,-0.2 -0.03,-0.4 a 0.51,0.51 0 0 1 0.78,-0.29 c 4.23,2.88 9.9,7.54 15.41,6.95 q 3.07,-0.34 6.17,-0.24 c 1.9,0.05 3.28,0.57 4.42,2.2 7.5,10.74 13.36,23.21 18.79,35.06 q 12.91,28.18 24.55,57.46 z"/>
  </g>
</svg>