<?xml version="1.0" encoding="UTF-8"?>
<svg xmlns="http://www.w3.org/2000/svg" viewBox="756 0 774 1448" width="100%" height="100%">
  <g id="hair" class="muscle-base">
    <path d="m 1096.04,0 h 7.79 c 22.49,2.45 53.18,10.99 60.21,36.27 q 0.46,1.66 2,2.05 c 64.38,16.44 60.01,99.49 44.24,147.61 q -2.62,7.99 -6.55,14.81 -0.51,0.89 -1.22,1.68 -0.97,1.07 -1.52,1.32 -3.63,1.58 -6.55,2.8 -14.77,6.1 -29.14,11 -0.74,0.26 -0.59,1.19 -0.52,-0.76 -1.47,-0.46 -4.4,1.42 -10.86,2.97 -3.97,1 -6.62,1.12 -5.28,0.24 -12.66,-0.36 -5.76,-0.52 -11.15,-2.21 -0.54,-0.17 -0.85,-0.03 -0.45,0.2 -0.58,0.77 0.26,-1.02 -0.52,-1.24 -9.76,-2.78 -19.21,-7.04 a 0.46,0.46 0 0 0 -0.65,0.43 l 0.39,12.23 q 0.49,15.83 -0.42,30.63 l -0.91,9.16 a 2.42,2.42 0 0 1 -1.99,2.15 q -11.5,2.06 -22.86,2.63 -5.84,0.05 -10.69,-1.12 -4.96,-1.19 -7,-1.31 -3.7,-0.23 -7.48,-0.12 -17.27,0.5 -33.97,1.33 -7.72,0.38 -15.15,-0.74 a 2.13,2.12 0.2 0 1 -1.78,-1.78 c -1,-6.77 1.75,-15.8 4.22,-22.15 q 5.88,-15.15 12.89,-32.55 c 7.85,-19.49 14.27,-41.02 13.35,-61.3 q -1.03,-22.68 -5.37,-57.36 -0.67,-5.33 -0.4,-10.31 0.98,-18.63 7.84,-37.04 5.87,-15.78 15.35,-24.54 c 7.92,-7.32 19.98,-14.55 31.09,-17.67 q 9.1,-2.55 18.79,-2.82 z m 40.66,79.56 c 15.08,3.29 29.45,-7.8 30.48,-23.26 q 0.15,-2.22 -0.63,-0.14 -6.61,17.62 -24.72,17.97 c -5.78,0.12 -11.81,-2.36 -16.39,-6.42 -1.53,-1.35 -3.74,-3.16 -5.84,-2.98 a 0.62,0.62 0 0 0 -0.5,0.9 q 5.86,11.37 17.6,13.93 z"/>
    <path d="m 1167.18,56.3 c -1.03,15.46 -15.4,26.55 -30.48,23.26 Q 1124.96,77 1119.1,65.63 a 0.62,0.62 0 0 1 0.5,-0.9 c 2.1,-0.18 4.31,1.63 5.84,2.98 4.58,4.06 10.61,6.54 16.39,6.42 q 18.11,-0.35 24.72,-17.97 0.78,-2.08 0.63,0.14 z"/>
  </g>
</svg>