<?xml version="1.0" encoding="UTF-8"?>
<svg xmlns="http://www.w3.org/2000/svg" viewBox="756 0 774 1448" width="100%" height="100%">
  <g id="hamstring" class="muscle-base">
    <path d="m 1016.46,760.39 c 9.44,12.24 16.13,25.63 21.41,40.04 q 0.82,2.23 0.84,4.98 0.07,11.27 -2.12,20.02 -2.75,11.03 -6.86,22.65 -0.52,1.46 -0.85,-0.05 -5.74,-25.82 -9.75,-52.59 -2.71,-18.1 -3.52,-34.73 -0.08,-1.52 0.85,-0.32 z"/>
    <path d="m 1070.52,797.23 c -11.68,27.55 -15.75,60.62 -14.27,91.04 q 0.39,8.01 2.12,18.82 4.13,25.86 6.66,45.29 c 2.03,15.61 1.65,31.91 -2.1,47.3 q -0.46,1.88 -0.63,-0.05 -1.63,-18.54 -5.82,-37.03 c -4.65,-20.57 -11.75,-43.58 -16.62,-63.37 -3.73,-15.15 -6.46,-30.31 -6.22,-45.8 q 0.49,-31.41 19.87,-55.13 c 2.88,-3.51 6.39,-5.98 9.88,-8.87 q 4.53,-3.74 10.3,-2.59 a 1.34,1.33 19.9 0 1 0.91,1.94 q -2.27,4.18 -4.08,8.45 z"/>
    <path d="m 1098.11,859.08 c 1.35,28.16 0.76,58.11 -0.79,88.31 q -0.29,5.81 -1.41,12.09 -3.22,18.13 0.59,38.78 0.25,1.36 -0.6,0.27 c -20.01,-25.52 -30.66,-57.27 -32.98,-89.64 -3.21,-44.66 6.94,-89.32 20.75,-132.24 q 0.55,-1.71 1.12,0 4.19,12.73 6.41,24.46 5.53,29.26 6.91,57.97 z"/>
    <path d="m 1219.83,958.26 c 1.6,-16.19 4.52,-34.12 7.27,-51.04 q 1.66,-10.21 2.07,-18.85 1.54,-32.19 -5.11,-62.59 -4.38,-20.02 -13.16,-37.05 -0.74,-1.43 0.83,-1.82 c 6.74,-1.68 10.82,2.92 15.54,6.72 q 2.63,2.11 4.95,4.97 22.46,27.73 19.33,65.93 c -1.28,15.6 -4.64,30.53 -8.67,45.57 q -4.34,16.19 -8.51,30.94 -8.04,28.43 -11.39,59.02 -0.17,1.55 -0.51,0.03 -4.7,-20.89 -2.64,-41.83 z"/>
    <path d="m 1222.33,911.18 c -2.52,31.89 -13.09,61.94 -32.73,87.27 q -0.72,0.94 -0.52,-0.23 2.27,-12.72 1.81,-27.27 -0.2,-6.27 -1.31,-11.44 -1.06,-4.94 -1.37,-9.68 -2.26,-34.73 -1.33,-78.46 0.82,-38.23 7.92,-73.18 2.24,-11.02 6.07,-21.84 0.39,-1.11 0.77,0.01 c 14.36,43.28 24.25,89.74 20.69,134.82 z"/>
    <path d="m 1252.18,789.16 c 4.38,-10.33 10.1,-20.26 17.11,-29.06 q 0.66,-0.83 0.64,0.22 -0.05,2.47 -0.26,5.11 c -2.25,28.2 -7.17,55.27 -13.07,82.76 q -0.28,1.33 -0.76,0.06 -5.28,-13.81 -7.95,-27.73 c -1.27,-6.66 -2.21,-15.94 0.54,-22.48 q 1.91,-4.56 3.75,-8.88 z"/>
  </g>
</svg>