<?xml version="1.0" encoding="UTF-8"?>
<svg xmlns="http://www.w3.org/2000/svg" viewBox="756 0 774 1448" width="100%" height="100%">
  <g id="hands" class="muscle-base">
    <path d="m 848.29,759.36 c -5.06,1.08 -7.66,-1.55 -5.81,-6.56 6.01,-16.27 11.17,-30.37 18.43,-44.8 q 1.12,-2.22 3.5,-1.5 l 0.45,0.14 a 3.88,3.87 16.7 0 1 2.59,4.81 c -4.79,16.16 -11.42,31.25 -18.02,46.96 a 1.59,1.57 -84.6 0 1 -1.14,0.95 z"/>
    <path d="m 847.54,670.63 q 10.11,-7.1 20.43,-14.71 c 1.82,-1.34 3.93,-1.24 5.61,0.25 q 1.28,1.14 0.18,2.44 -14.63,17.34 -36.12,26.57 -2.85,1.23 -6.59,0.27 -0.66,-0.17 -1.22,-0.56 -2.78,-1.93 0.1,-3.71 c 5.74,-3.54 11.89,-6.53 17.61,-10.55 z"/>
    <path d="m 857.95,703.24 c -4.4,13.3 -9.63,25.8 -16.79,37.33 q -1.72,2.78 -4.23,4.64 a 1.09,1.09 0 0 1 -1.74,-0.77 c -1.48,-16.04 8.92,-33.06 16.88,-46.35 q 0.57,-0.95 1.66,-0.8 c 2.95,0.39 5.23,2.88 4.22,5.95 z"/>
    <path d="m 875.79,722.55 c -4.07,11.58 -8.41,22.82 -15.01,33 q -1.32,2.03 -3.6,3.48 -0.5,0.32 -0.97,-0.05 c -2.61,-2.08 -1.53,-6.69 -0.45,-9.36 q 5.27,-13.01 10.45,-25.43 1.81,-4.36 4.29,-8.03 0.62,-0.92 1.74,-0.88 c 4.7,0.15 4.82,3.66 3.55,7.27 z"/>
    <path d="m 887.56,727.64 q -3.99,9.72 -9.96,19.13 -0.8,1.27 -2.1,1.97 a 0.74,0.74 0 0 1 -1.08,-0.76 q 1.91,-12.47 8.14,-23.5 2.02,-3.58 4.82,-5.9 a 0.94,0.94 0 0 1 1.47,0.36 c 1.15,2.7 -0.24,6.15 -1.29,8.7 z"/>
    <path d="m 902.05,654.63 c 1.72,20.81 -0.74,43.2 -13.83,59.63 -1.5,1.87 -3.8,1.35 -5.78,0.55 q -7.06,-2.82 -10.22,-9.71 c -0.79,-1.73 -2.34,-3.24 -3.92,-4.25 q -5.99,-3.87 -10.35,-8.32 a 2.19,2.18 28.4 0 1 -0.59,-1.97 q 1.69,-8.62 7.46,-16.29 7.41,-9.85 18.48,-23.61 0.37,-0.46 0.96,-0.45 8.59,0.19 16.75,3.06 a 1.58,1.57 -82.5 0 1 1.04,1.36 z"/>
    <path d="m 1390.47,703.5 c -7.03,-15.23 -8.6,-32.38 -6.98,-49.44 a 0.84,0.84 0 0 1 0.55,-0.71 q 8.24,-2.9 16.94,-3.13 a 1.84,1.82 -19.6 0 1 1.51,0.71 q 7.66,9.84 15.58,19.76 7.56,9.46 9.92,18.85 c 0.44,1.72 -0.22,3.09 -1.51,4.23 q -4.73,4.18 -10.02,7.65 -2.13,1.39 -3.17,3.63 c -2.09,4.49 -5.23,7.65 -10.01,9.66 q -2.32,0.97 -4.45,0.69 -0.49,-0.06 -0.83,-0.42 -4.41,-4.73 -7.53,-11.48 z"/>
    <path d="m 1434.6,668.37 q 8.2,5.82 20.84,12.66 3.02,1.63 0.3,3.74 -0.49,0.38 -1.08,0.56 -3.68,1.1 -6.72,-0.17 -21.61,-9.06 -36.36,-26.82 -0.91,-1.09 0.16,-2.02 c 2.56,-2.23 4.17,-1.59 6.69,0.28 q 8.2,6.11 16.17,11.77 z"/>
    <path d="m 1440.18,733.51 c -5.02,-9.9 -10.12,-20.82 -13.01,-31.69 q -0.15,-0.58 0.1,-1.13 1.52,-3.24 4.84,-3.48 0.7,-0.05 1.06,0.55 c 8.34,13.8 18.29,30.28 17.05,46.84 a 0.97,0.97 0 0 1 -1.49,0.74 c -3.56,-2.27 -6.64,-8.06 -8.55,-11.83 z"/>
    <path d="m 1431.61,747.81 q -8.05,-18.9 -13.4,-35.42 -0.77,-2.34 0.9,-4.93 0.26,-0.41 0.73,-0.64 3.35,-1.63 4.67,0.91 3.49,6.76 6.36,13.86 6.23,15.39 12.52,32.24 c 1.04,2.81 0.09,4.43 -2.57,5.47 q -3.87,1.52 -5.42,-2.33 -1.86,-4.6 -3.79,-9.16 z"/>
    <path d="m 1409.03,720.33 c -1.15,-3.85 4.48,-7.35 6.5,-3.44 1.02,1.99 2.25,3.91 3.11,5.95 q 5.89,13.98 11.33,27.6 1.3,3.26 0.57,7.15 a 1.77,1.77 0 0 1 -2.76,1.12 c -3.33,-2.36 -6.22,-7.81 -8.08,-11.63 -4.21,-8.63 -7.92,-17.55 -10.67,-26.75 z"/>
    <path d="m 1407.92,746.8 c -4.19,-6.47 -7.65,-13.37 -10.63,-20.61 q -1.4,-3.4 -0.83,-7.06 a 0.95,0.94 -66.3 0 1 1.52,-0.6 q 2.67,2.14 4.37,5.02 6.61,11.16 8.73,24.5 a 0.6,0.6 0 0 1 -0.81,0.65 q -1.51,-0.6 -2.35,-1.9 z"/>
  </g>
</svg>