<?xml version="1.0" encoding="UTF-8"?>
<svg xmlns="http://www.w3.org/2000/svg" viewBox="756 0 774 1448" width="100%" height="100%">
  <g id="lower-back" class="muscle-base">
    <path d="m 1068.62,544.21 c 7.96,11.18 10.18,25.23 10.98,38.79 a 1.16,1.16 0 0 1 -0.56,1.06 l -18.13,10.62 a 0.4,0.39 -13.5 0 1 -0.6,-0.36 q 1.04,-16.62 2.69,-32.09 0.79,-7.45 2.8,-14.26 0.6,-2.03 1.74,-3.74 a 0.66,0.65 -45.9 0 1 1.08,-0.02 z"/>
    <path d="m 1133.23,596.5 c -0.34,6.54 -1.25,13 -1.82,19.57 q -0.07,0.85 -0.6,0.17 -3.62,-4.73 -6.59,-7.98 -9.72,-10.63 -18.63,-20.4 -12.89,-14.11 -23.33,-31.15 a 0.57,0.57 0 0 1 0.2,-0.78 q 7.87,-4.59 14.81,-11.15 c 12.33,-11.64 23.63,-24.56 35.33,-36.99 q 0.87,-0.93 0.88,0.34 c 0.19,29.32 1.27,58.9 -0.25,88.37 z"/>
    <path d="m 1199.62,562.36 c -10.91,16.62 -23.7,30.13 -37.46,44.84 q -3.74,4 -7.34,8.9 -0.68,0.93 -0.82,-0.22 c -1.8,-15.45 -2.6,-31.26 -2.53,-47.01 q 0.14,-30.97 0.58,-60.87 0.02,-1.16 0.8,-0.31 13.63,14.85 25.73,27.71 7.18,7.63 15.56,14.48 4.25,3.47 8.77,5.95 0.51,0.27 0.23,0.78 -1.61,2.85 -3.52,5.75 z"/>
    <path d="m 1205.91,583.12 c 0.67,-13.86 3,-27.66 11.11,-39.08 a 0.57,0.57 0 0 1 0.96,0.06 q 1.93,3.49 2.75,7.64 c 2.78,13.99 3.44,28.55 4.52,42.69 a 0.37,0.36 13.1 0 1 -0.55,0.34 l -18.27,-10.7 a 1.05,1.04 16.6 0 1 -0.52,-0.95 z"/>
  </g>
</svg>