<?xml version="1.0" encoding="UTF-8"?>
<svg xmlns="http://www.w3.org/2000/svg" viewBox="756 0 774 1448" width="100%" height="100%">
  <g id="neck" class="muscle-base">
    <path d="m 1133.1,222 -1.89,61.8 q -0.02,0.66 -0.62,0.4 -22.28,-9.35 -45.91,-9.91 a 0.77,0.77 0 0 1 -0.6,-1.22 q 1.38,-1.89 3.31,-2.48 c 6.78,-2.07 12.31,-3.9 18.36,-8.33 q 5.08,-3.71 7.66,-8.78 c 5.15,-10.11 6.3,-21.91 7.11,-32.95 q 0.13,-0.57 0.58,-0.77 0.31,-0.14 0.85,0.03 5.39,1.69 11.15,2.21 z"/>
    <path d="m 1164.71,218.73 c 1.42,12.25 1.86,24.62 7.81,35.59 3.46,6.38 11.4,11.41 17.38,13.62 q 4.31,1.6 8.68,2.96 1.85,0.58 2.75,2.35 a 0.65,0.65 0 0 1 -0.56,0.94 q -23.87,0.79 -45.98,10.03 a 0.34,0.34 0 0 1 -0.47,-0.3 l -1.94,-62.68 q 6.46,-1.55 10.86,-2.97 0.95,-0.3 1.47,0.46 z"/>
  </g>
</svg>