<?xml version="1.0" encoding="UTF-8"?>
<svg xmlns="http://www.w3.org/2000/svg" viewBox="756 0 774 1448" width="100%" height="100%">
  <g id="trapezius" class="muscle-base">
    <path d="m 1135.46,406.92 c -18.92,-8.6 -32.13,-23.67 -41.02,-42.55 q -5.92,-12.58 -12.01,-29.57 c -8.17,-22.8 -18.79,-46.58 -45.58,-51.11 q -2.73,-0.46 -0.13,-1.41 4.88,-1.81 11.29,-2.14 31.93,-1.68 62.2,8.18 c 8.7,2.84 17.39,6.76 24.41,12.87 q 2.26,1.96 2.37,4.56 c 1.34,31.32 1.02,63.51 1.17,95.68 q 0.01,2.48 -0.9,4.77 -0.52,1.31 -1.8,0.72 z"/>
    <path d="m 1207.43,323.66 c -6.47,16.09 -12.05,33.31 -20.26,48.12 q -13.47,24.27 -37.07,35.13 a 1.54,1.53 -20.3 0 1 -2.12,-0.97 q -0.48,-1.66 -0.5,-3.37 -0.3,-43.8 0.71,-95.35 c 0.05,-2.69 0.7,-4.25 2.8,-6.09 q 6.04,-5.32 13.64,-8.64 c 21.78,-9.51 47.77,-13.62 71.23,-12.54 4.41,0.2 9.17,0.92 13.49,2.46 q 1.76,0.62 -0.05,1.06 c -2.97,0.73 -5.89,1.25 -8.8,2.31 -17.14,6.22 -26.43,21.36 -33.07,37.88 z"/>
  </g>
</svg>