<?xml version="1.0" encoding="UTF-8"?>
<svg xmlns="http://www.w3.org/2000/svg" viewBox="756 0 774 1448" width="100%" height="100%">
  <g id="triceps" class="muscle-base">
    <path d="m 976.72,479.34 q -0.46,-17.73 -0.59,-32.11 c -0.22,-24.28 5.62,-47.43 19.17,-67.7 q 0.38,-0.55 0.24,0.1 -9.84,49.08 -17.78,99.12 a 0.83,0.82 -4 0 1 -0.58,0.66 l -0.25,0.08 q -0.21,0.06 -0.21,-0.15 z"/>
    <path d="m 990.45,481.03 c -2.39,-3.13 -3.03,-8.64 -3.15,-12.61 q -0.81,-26.18 5.96,-50.71 a 0.37,0.37 0 0 1 0.61,-0.17 q 0.16,0.15 0.19,0.37 c 2.18,16.06 4.1,31.34 3.14,46.56 -0.33,5.2 -1.01,12.19 -4.17,16.53 a 1.61,1.61 0 0 1 -2.58,0.03 z"/>
    <path d="m 1028.38,422.24 c 0.27,25.48 -7.52,49.09 -23.37,68.41 q -1.16,1.41 -0.93,-0.4 0.44,-3.53 0.41,-7.83 -0.06,-10.3 -1.3,-22.14 -2.2,-20.98 -3.39,-41.99 -0.61,-10.99 0.7,-23.78 c 1.65,-15.98 6.95,-30.6 19.9,-39.63 a 0.42,0.41 73.8 0 1 0.65,0.36 q -0.32,8.22 1.06,16.55 c 2.81,16.86 6.09,33.63 6.27,50.45 z"/>
    <path d="m 1281,491.32 c -15.93,-19.27 -23.98,-42.53 -23.89,-67.9 q 0.04,-11.8 1.5,-21.9 2.13,-14.76 4.78,-30.03 1.39,-8.03 1.05,-16.2 a 0.44,0.44 0 0 1 0.7,-0.38 c 15.59,11.17 19.78,29.71 20.57,48.58 q 0.43,10.46 -0.35,21.17 -1.37,18.51 -3.48,40.31 -1.27,13.12 -0.53,26.21 0.03,0.6 -0.35,0.14 z"/>
    <path d="m 1290.47,379.83 c 11.24,17.52 17.33,36.08 18.47,57.41 0.75,14.09 0.07,27.95 0.05,41.97 a 0.28,0.28 0 0 1 -0.41,0.24 l -0.26,-0.14 q -0.65,-0.34 -0.76,-1.06 -7.8,-49.99 -17.59,-98.21 -0.29,-1.43 0.5,-0.21 z"/>
    <path d="m 1291.39,418.15 q 0.03,-0.24 0.18,-0.46 0.48,-0.71 0.7,0.12 6.89,26.33 5.89,50.76 c -0.16,3.99 -0.69,8.84 -2.91,12.24 a 1.69,1.68 -51.8 0 1 -2.56,0.31 c -2.76,-2.6 -3.77,-9.43 -4.13,-13.42 -1.44,-16.19 0.36,-32.39 2.83,-49.55 z"/>
  </g>
</svg>