<?xml version="1.0" encoding="UTF-8"?>
<svg xmlns="http://www.w3.org/2000/svg" viewBox="756 0 774 1448" width="100%" height="100%">
  <g id="upper-back" class="muscle-base">
    <path d="m 1076.09,338.19 q 6.08,14 8.04,30.55 0.06,0.58 -0.52,0.57 -11.77,-0.05 -23.32,-2.12 -15.59,-2.79 -31.04,-5.99 a 1.37,1.36 12.9 0 1 -1.05,-1.66 c 4.67,-18.66 16.53,-35.54 33.45,-45.02 a 0.84,0.83 59.5 0 1 1.11,0.29 c 4.8,7.66 9.75,15.13 13.33,23.38 z"/>
    <path d="m 1136.59,472.49 c -4.61,16.03 -15.02,30.53 -26.92,42.6 q -13.41,13.6 -29.37,25.62 -0.65,0.5 -0.73,-0.32 -5.92,-63.46 -22.92,-123.09 -4.96,-17.4 -9.99,-34.68 a 0.7,0.7 0 0 1 0.74,-0.89 q 8.92,0.83 16.32,1.52 10.81,1.01 19.97,-4.41 0.54,-0.32 1,0.1 1.78,1.59 3.48,3.41 22.52,24.07 30.7,32.06 7.98,7.79 16.19,14.02 0.79,0.6 1.05,1.52 6.33,22.2 0.48,42.54 z"/>
    <path d="m 1208.41,340.35 c 3.56,-8.92 9.08,-17.44 14.24,-25.41 a 0.92,0.91 29.5 0 1 1.18,-0.32 c 16.77,8.66 28.69,26.73 33.4,44.65 q 0.44,1.67 -1.25,2 c -18.03,3.6 -36.04,7.81 -54.02,8.1 q -0.68,0.01 -0.6,-0.67 1.86,-15.33 7.05,-28.35 z"/>
    <path d="m 1238.86,382.59 c -6.36,21.96 -12.97,44.37 -18.07,65.96 q -10.8,45.75 -14.79,91.85 a 0.46,0.46 0 0 1 -0.74,0.33 Q 1184.28,525.02 1169.34,508 c -8.23,-9.38 -15.46,-20.54 -19.54,-32.61 q -6.78,-20.06 -1.17,-43.01 c 0.49,-1.99 0.83,-3.24 2.53,-4.57 17.75,-13.89 33.26,-32.01 49.33,-48.67 q 0.64,-0.67 1.43,-0.19 9.01,5.38 20.51,4.24 7.75,-0.76 15.78,-1.39 a 0.62,0.62 0 0 1 0.65,0.79 z"/>
  </g>
</svg>