<svg xmlns="http://www.w3.org/2000/svg" viewBox="90 55 220 310" width="100%" height="100%">
  <defs>
    <radialGradient id="bgA" cx="50%" cy="40%" r="60%">
      <stop offset="0%" stop-color="#171528" />
      <stop offset="100%" stop-color="#0f0d1a" />
    </radialGradient>
    <filter id="softGlowA" x="-30%" y="-30%" width="160%" height="160%">
      <feGaussianBlur stdDeviation="14" result="blur" />
      <feMerge>
        <feMergeNode in="blur" />
        <feMergeNode in="SourceGraphic" />
      </feMerge>
    </filter>
  </defs>

  <path d="M 178 88 L 178 72 Q 200 66 222 72 L 222 88 Q 200 96 178 88 Z" fill="#4a4660" stroke="#2d2a42" stroke-width="2.5" stroke-linejoin="round" />
  <path d="M 186 80 Q 190 72 188 66" fill="none" stroke="#3a3650" stroke-width="1.5" />
  <path d="M 214 80 Q 210 72 212 66" fill="none" stroke="#3a3650" stroke-width="1.5" />
  <path d="M 200 84 L 200 68" fill="none" stroke="#3a3650" stroke-width="1.5" />

  
  <path d="M 162 88 Q 200 76 238 88 L 248 106 Q 200 98 152 106 Z" fill="#4a4660" stroke="#2d2a42" stroke-width="2.5" stroke-linejoin="round" />

  
  <path d="M 148 100 Q 112 110 104 148 Q 108 182 132 188 Q 146 170 148 140 Z" fill="#3e3a54" stroke="#2d2a42" stroke-width="2.5" stroke-linejoin="round" />
  <path d="M 140 108 Q 122 126 118 152" fill="none" stroke="#4a4660" stroke-width="1.5" />
  <path d="M 144 124 Q 128 142 126 166" fill="none" stroke="#4a4660" stroke-width="1.5" />

  
  <path d="M 252 100 Q 288 110 296 148 Q 292 182 268 188 Q 254 170 252 140 Z" fill="#3e3a54" stroke="#2d2a42" stroke-width="2.5" stroke-linejoin="round" />
  <path d="M 260 108 Q 278 126 282 152" fill="none" stroke="#4a4660" stroke-width="1.5" />
  <path d="M 256 124 Q 272 142 274 166" fill="none" stroke="#4a4660" stroke-width="1.5" />

  
  <path d="M 152 106 C 130 112, 116 132, 118 160 C 120 180, 134 198, 154 204 C 172 210, 186 200, 196 190 L 200 186 L 204 190 C 214 200, 228 210, 246 204 C 266 198, 280 180, 282 160 C 284 132, 270 112, 248 106 Q 200 118 152 106 Z" fill="#3e3a54" stroke="#2d2a42" stroke-width="2" stroke-linejoin="round" />
  <line x1="200" y1="122" x2="200" y2="188" stroke="#4a4660" stroke-width="1.5" />

  
  <path d="M 142 100 Q 172 108 200 116 Q 228 108 258 100" fill="none" stroke="#3a3650" stroke-width="2.5" opacity="0.7" />

  
  <path d="M 150 228 Q 134 264 130 306 Q 140 328 162 322 Q 170 294 168 258 Z" fill="#3e3a54" stroke="#2d2a42" stroke-width="2" stroke-linejoin="round" />
  <path d="M 250 228 Q 266 264 270 306 Q 260 328 238 322 Q 230 294 232 258 Z" fill="#3e3a54" stroke="#2d2a42" stroke-width="2" stroke-linejoin="round" />

  
  <path d="M 168 244 Q 164 284 168 320 L 200 328 L 232 320 Q 236 284 232 244 L 200 238 Z" fill="#3e3a54" stroke="#2d2a42" stroke-width="2" stroke-linejoin="round" />
  <path d="M 166 264 L 234 264" fill="none" stroke="#2d2a42" stroke-width="1.5" />
  <path d="M 166 288 L 234 288" fill="none" stroke="#2d2a42" stroke-width="1.5" />
  <path d="M 167 308 L 233 308" fill="none" stroke="#2d2a42" stroke-width="1.5" />
  <path d="M 200 240 L 200 325" fill="none" stroke="#2d2a42" stroke-width="1.5" />

  
  <path d="M 116 270 Q 96 310 92 350 Q 100 370 114 360 Q 124 340 128 310 Q 130 286 122 272 Z" fill="#4a4660" stroke="#2d2a42" stroke-width="2.5" stroke-linejoin="round" />
  <path d="M 284 270 Q 304 310 308 350 Q 300 370 286 360 Q 276 340 272 310 Q 270 286 278 272 Z" fill="#4a4660" stroke="#2d2a42" stroke-width="2.5" stroke-linejoin="round" />

  
  
  <path d="M 132 186 Q 110 210 106 254 Q 112 286 134 282 Q 152 268 154 236 Q 156 206 146 188 Z" fill="#7c3aed" opacity="0.2" filter="url(#softGlowA)" />
  <path d="M 268 186 Q 290 210 294 254 Q 288 286 266 282 Q 248 268 246 236 Q 244 206 254 188 Z" fill="#7c3aed" opacity="0.2" filter="url(#softGlowA)" />

  
  <path d="M 132 186 Q 110 210 106 254 Q 112 286 134 282 Q 148 270 150 244 Q 152 210 144 190 Q 138 186 132 186 Z" fill="#8b5cf6" stroke="#a78bfa" stroke-width="2" stroke-linejoin="round" />

  
  <path d="M 130 192 Q 118 210 116 240 Q 118 260 128 268 Q 136 260 138 240 Q 140 214 134 196 Q 132 194 130 192 Z" fill="#a78bfa" stroke="#c4b5fd" stroke-width="1" stroke-linejoin="round" />

  
  <path d="M 118 206 Q 126 222 128 244" fill="none" stroke="#7c3aed" stroke-width="1.2" opacity="0.6" />
  <path d="M 114 226 Q 122 240 124 262" fill="none" stroke="#7c3aed" stroke-width="1.2" opacity="0.6" />
  <path d="M 112 248 Q 120 262 126 278" fill="none" stroke="#7c3aed" stroke-width="1.2" opacity="0.5" />
  <path d="M 122 268 Q 130 274 138 272" fill="none" stroke="#7c3aed" stroke-width="1.2" opacity="0.5" />

  
  <path d="M 126 188 Q 118 210 118 240 Q 118 268 128 280" fill="none" stroke="#6d28d9" stroke-width="1.5" opacity="0.7" />

  
  <path d="M 268 186 Q 290 210 294 254 Q 288 286 266 282 Q 252 270 250 244 Q 248 210 256 190 Q 262 186 268 186 Z" fill="#8b5cf6" stroke="#a78bfa" stroke-width="2" stroke-linejoin="round" />

  
  <path d="M 270 192 Q 282 210 284 240 Q 282 260 272 268 Q 264 260 262 240 Q 260 214 266 196 Q 268 194 270 192 Z" fill="#a78bfa" stroke="#c4b5fd" stroke-width="1" stroke-linejoin="round" />

  
  <path d="M 282 206 Q 274 222 272 244" fill="none" stroke="#7c3aed" stroke-width="1.2" opacity="0.6" />
  <path d="M 286 226 Q 278 240 276 262" fill="none" stroke="#7c3aed" stroke-width="1.2" opacity="0.6" />
  <path d="M 288 248 Q 280 262 274 278" fill="none" stroke="#7c3aed" stroke-width="1.2" opacity="0.5" />
  <path d="M 278 268 Q 270 274 262 272" fill="none" stroke="#7c3aed" stroke-width="1.2" opacity="0.5" />

  
  <path d="M 274 188 Q 282 210 282 240 Q 282 268 272 280" fill="none" stroke="#6d28d9" stroke-width="1.5" opacity="0.7" />

  
  <path d="M 146 196 Q 150 214 148 238 Q 146 254 140 264" fill="none" stroke="#6d28d9" stroke-width="2" opacity="0.5" />
  <path d="M 254 196 Q 250 214 252 238 Q 254 254 260 264" fill="none" stroke="#6d28d9" stroke-width="2" opacity="0.5" />

  
  <path d="M 108 272 Q 100 298 98 328 Q 100 346 108 350 Q 114 340 116 318 Q 118 290 112 274 Z" fill="#7c3aed" stroke="#a78bfa" stroke-width="1.5" opacity="0.5" stroke-linejoin="round" />
  <path d="M 292 272 Q 300 298 302 328 Q 300 346 292 350 Q 286 340 284 318 Q 282 290 288 274 Z" fill="#7c3aed" stroke="#a78bfa" stroke-width="1.5" opacity="0.5" stroke-linejoin="round" />

  
  </svg>