<svg xmlns="http://www.w3.org/2000/svg" viewBox="90 55 220 290" width="100%" height="100%">
  <defs>
    <radialGradient id="bgS" cx="50%" cy="40%" r="60%">
      <stop offset="0%" stop-color="#171528" />
      <stop offset="100%" stop-color="#0f0d1a" />
    </radialGradient>
    <filter id="softGlowS" x="-30%" y="-30%" width="160%" height="160%">
      <feGaussianBlur stdDeviation="14" result="blur" />
      <feMerge>
        <feMergeNode in="blur" />
        <feMergeNode in="SourceGraphic" />
      </feMerge>
    </filter>
  </defs>

  <path d="M 178 88 L 178 72 Q 200 66 222 72 L 222 88 Q 200 96 178 88 Z" fill="#4a4660" stroke="#2d2a42" stroke-width="2.5" stroke-linejoin="round" />
  <path d="M 186 80 Q 190 72 188 66" fill="none" stroke="#3a3650" stroke-width="1.5" />
  <path d="M 214 80 Q 210 72 212 66" fill="none" stroke="#3a3650" stroke-width="1.5" />
  <path d="M 200 84 L 200 68" fill="none" stroke="#3a3650" stroke-width="1.5" />

  
  <path d="M 162 88 Q 200 76 238 88 L 248 106 Q 200 98 152 106 Z" fill="#3e3a54" stroke="#2d2a42" stroke-width="2.5" stroke-linejoin="round" />

  
  <path d="M 152 106 C 130 112, 116 132, 118 160 C 120 180, 134 198, 154 204 C 172 210, 186 200, 196 190 L 200 186 L 204 190 C 214 200, 228 210, 246 204 C 266 198, 280 180, 282 160 C 284 132, 270 112, 248 106 Q 200 118 152 106 Z" fill="#3e3a54" stroke="#2d2a42" stroke-width="2.5" stroke-linejoin="round" />
  
  <path d="M 132 124 Q 148 140 168 148" fill="none" stroke="#4a4660" stroke-width="1" />
  <path d="M 128 144 Q 148 160 172 168" fill="none" stroke="#4a4660" stroke-width="1" />
  <path d="M 130 164 Q 152 180 178 186" fill="none" stroke="#4a4660" stroke-width="1" />
  <path d="M 268 124 Q 252 140 232 148" fill="none" stroke="#4a4660" stroke-width="1" />
  <path d="M 272 144 Q 252 160 228 168" fill="none" stroke="#4a4660" stroke-width="1" />
  <path d="M 270 164 Q 248 180 222 186" fill="none" stroke="#4a4660" stroke-width="1" />
  <line x1="200" y1="122" x2="200" y2="188" stroke="#4a4660" stroke-width="1.5" />

  
  <path d="M 142 100 Q 172 108 200 116 Q 228 108 258 100" fill="none" stroke="#3a3650" stroke-width="2.5" opacity="0.7" />

  
  <path d="M 132 192 Q 114 216 112 258 Q 118 288 138 284 Q 150 264 150 232 Z" fill="#4a4660" stroke="#2d2a42" stroke-width="2.5" stroke-linejoin="round" />
  <path d="M 130 204 Q 122 228 122 264" fill="none" stroke="#3a3650" stroke-width="1.5" />
  <path d="M 268 192 Q 286 216 288 258 Q 282 288 262 284 Q 250 264 250 232 Z" fill="#4a4660" stroke="#2d2a42" stroke-width="2.5" stroke-linejoin="round" />
  <path d="M 270 204 Q 278 228 278 264" fill="none" stroke="#3a3650" stroke-width="1.5" />

  
  <path d="M 150 236 Q 134 272 130 314 Q 140 336 162 330 Q 170 302 168 266 Z" fill="#3e3a54" stroke="#2d2a42" stroke-width="2" stroke-linejoin="round" />
  <path d="M 250 236 Q 266 272 270 314 Q 260 336 238 330 Q 230 302 232 266 Z" fill="#3e3a54" stroke="#2d2a42" stroke-width="2" stroke-linejoin="round" />

  
  <path d="M 168 252 Q 164 292 168 328 L 200 336 L 232 328 Q 236 292 232 252 L 200 246 Z" fill="#3e3a54" stroke="#2d2a42" stroke-width="2" stroke-linejoin="round" />
  <path d="M 166 272 L 234 272" fill="none" stroke="#2d2a42" stroke-width="1.5" />
  <path d="M 166 296 L 234 296" fill="none" stroke="#2d2a42" stroke-width="1.5" />
  <path d="M 167 316 L 233 316" fill="none" stroke="#2d2a42" stroke-width="1.5" />
  <path d="M 200 248 L 200 333" fill="none" stroke="#2d2a42" stroke-width="1.5" />

  
  
  <path d="M 148 96 Q 106 108 98 152 Q 102 190 128 198 Q 150 180 154 140 Q 156 112 148 96" fill="#7c3aed" opacity="0.2" filter="url(#softGlowS)" />
  <path d="M 252 96 Q 294 108 302 152 Q 298 190 272 198 Q 250 180 246 140 Q 244 112 252 96" fill="#7c3aed" opacity="0.2" filter="url(#softGlowS)" />

  
  <path d="M 148 96 Q 106 108 98 152 Q 102 190 128 198 Q 142 186 146 162 Q 150 180 154 140 Q 156 112 148 96 Z" fill="#8b5cf6" stroke="#a78bfa" stroke-width="2" stroke-linejoin="round" />

  
  <path d="M 146 108 Q 128 122 122 148" fill="none" stroke="#7c3aed" stroke-width="1.5" opacity="0.7" />
  <path d="M 148 124 Q 132 138 128 162" fill="none" stroke="#7c3aed" stroke-width="1.5" opacity="0.7" />
  <path d="M 150 142 Q 136 156 132 178" fill="none" stroke="#7c3aed" stroke-width="1.5" opacity="0.7" />

  
  <path d="M 148 96 Q 126 102 112 118 Q 120 126 134 122 Q 146 116 152 106 Q 152 100 148 96" fill="#a78bfa" stroke="#c4b5fd" stroke-width="1" stroke-linejoin="round" />

  
  <path d="M 252 96 Q 294 108 302 152 Q 298 190 272 198 Q 258 186 254 162 Q 250 180 246 140 Q 244 112 252 96 Z" fill="#8b5cf6" stroke="#a78bfa" stroke-width="2" stroke-linejoin="round" />

  
  <path d="M 254 108 Q 272 122 278 148" fill="none" stroke="#7c3aed" stroke-width="1.5" opacity="0.7" />
  <path d="M 252 124 Q 268 138 272 162" fill="none" stroke="#7c3aed" stroke-width="1.5" opacity="0.7" />
  <path d="M 250 142 Q 264 156 268 178" fill="none" stroke="#7c3aed" stroke-width="1.5" opacity="0.7" />

  
  <path d="M 252 96 Q 274 102 288 118 Q 280 126 266 122 Q 254 116 248 106 Q 248 100 252 96" fill="#a78bfa" stroke="#c4b5fd" stroke-width="1" stroke-linejoin="round" />

  
  </svg>